<?xml version="1.0" standalone="no"?>
<!DOCTYPE svg PUBLIC "-//W3C//DTD SVG 20010904//EN"
 "http://www.w3.org/TR/2001/REC-SVG-20010904/DTD/svg10.dtd">
<svg version="1.0" xmlns="http://www.w3.org/2000/svg"
 width="1920.000000pt" height="1306.000000pt" viewBox="0 0 1920.000000 1306.000000"
 preserveAspectRatio="xMidYMid meet">

<g transform="translate(0.000000,1306.000000) scale(0.100000,-0.100000)"
fill="#000000" stroke="none">
<path d="M11714 12885 c-187 -40 -345 -190 -408 -384 l-26 -80 0 -843 c-1
-717 -3 -837 -14 -805 -21 57 -61 103 -113 128 l-48 24 -2696 5 -2696 5 294
249 c287 243 316 274 296 310 -4 8 -264 316 -577 685 -371 438 -577 673 -592
677 -13 3 -30 4 -36 1 -7 -3 -360 -300 -785 -661 -425 -361 -774 -656 -777
-656 -4 0 -6 41 -6 90 0 104 -16 154 -55 172 -20 9 -49 7 -143 -9 l-117 -20
-15 21 c-71 101 -217 144 -381 112 -130 -26 -256 -92 -344 -181 l-72 -72 -64
13 c-77 16 -153 18 -180 4 -24 -13 -25 -57 -3 -88 15 -21 15 -25 0 -41 -21
-24 -20 -50 4 -76 19 -21 19 -21 -14 -68 -19 -26 -42 -76 -51 -112 -15 -54
-16 -71 -6 -112 14 -53 51 -108 79 -117 17 -6 16 -11 -9 -89 -14 -45 -34 -125
-43 -177 -10 -52 -27 -113 -38 -135 -19 -39 -20 -48 -9 -195 6 -85 12 -204 14
-265 6 -223 78 -322 462 -645 306 -256 423 -386 502 -557 44 -96 63 -184 63
-305 0 -53 4 -99 9 -103 5 -3 -5 -40 -22 -83 -44 -109 -245 -504 -365 -719
-102 -181 -162 -312 -162 -353 0 -107 376 -171 825 -141 351 24 495 65 495
141 0 53 -209 231 -352 301 l-46 22 50 72 c52 74 70 136 50 171 -8 15 18 74
142 319 251 495 319 700 318 965 0 99 -6 293 -11 326 0 6 -19 21 -42 33 -22
13 -39 24 -37 26 2 1 107 22 233 45 127 23 246 46 266 51 42 11 62 46 53 94
l-6 32 60 7 c84 9 160 51 276 151 54 47 104 85 111 85 26 0 74 51 91 96 14 37
16 55 8 94 l-10 48 160 136 160 135 12 -27 c25 -61 111 -132 159 -132 13 0 15
-94 15 -874 0 -481 2 -881 5 -888 4 -9 -9 -17 -40 -26 -121 -32 -190 -189
-136 -308 23 -49 88 -107 140 -122 26 -8 164 -12 439 -12 369 0 405 -2 449
-19 26 -10 83 -26 126 -36 90 -20 122 -13 133 30 3 14 9 25 14 25 4 0 19 -45
33 -101 64 -243 224 -479 426 -628 575 -424 1391 -226 1710 415 38 78 83 205
96 277 7 35 25 52 25 23 0 -8 8 -24 19 -37 18 -23 20 -23 97 -12 44 7 106 22
139 35 l60 22 915 6 915 5 41 22 c23 12 54 37 69 54 21 26 28 30 36 18 5 -8 9
-17 9 -22 0 -20 86 -97 133 -118 l52 -24 1297 -3 1297 -2 22 30 c29 38 36 38
44 -2 21 -107 80 -256 138 -352 354 -583 1121 -737 1668 -335 86 64 213 196
270 284 80 120 123 217 158 355 10 41 24 76 30 78 6 2 11 -3 11 -11 0 -7 9
-22 20 -32 26 -24 109 -14 233 26 356 116 610 423 657 790 5 46 10 153 10 239
1 100 6 176 15 215 19 79 19 253 -1 335 -18 77 -46 127 -112 198 -47 50 -51
52 -103 52 -51 0 -57 3 -95 43 -36 37 -42 51 -52 116 -51 313 -326 554 -792
694 -303 92 -648 146 -1305 206 -373 35 -507 51 -647 80 -171 36 -291 85 -322
134 -8 12 -99 258 -202 547 -252 707 -272 753 -393 882 -70 75 -150 121 -240
138 -86 16 -1271 12 -1347 -5z m-6377 -346 c114 -135 363 -428 553 -652 190
-224 345 -413 345 -419 0 -7 -281 -250 -623 -541 l-624 -528 -127 -5 c-120 -5
-128 -4 -160 18 -33 22 -72 81 -84 127 -7 30 -69 28 -153 -5 -55 -23 -67 -25
-78 -13 -78 85 -799 945 -800 954 -1 12 1524 1315 1536 1312 4 -1 101 -112
215 -248z m7527 109 c87 -26 187 -165 229 -318 8 -30 50 -257 93 -504 l78
-448 -20 -37 c-12 -23 -35 -44 -64 -59 l-45 -22 -677 2 c-670 3 -677 3 -705
24 -65 49 -63 30 -63 582 -1 469 1 504 19 556 36 104 98 173 191 215 43 20 65
21 484 21 316 0 450 -3 480 -12z m473 -40 c59 -97 92 -181 293 -743 110 -308
209 -572 220 -587 l19 -26 -84 -13 c-89 -13 -150 -4 -174 25 -6 7 -49 139 -95
292 -249 829 -306 1022 -306 1036 0 20 56 68 79 68 10 0 30 -22 48 -52z
m-1927 -207 c20 -10 44 -36 57 -61 23 -42 23 -49 23 -374 0 -305 -2 -334 -20
-373 -21 -47 -70 -83 -112 -83 l-28 0 0 455 0 455 23 0 c12 0 38 -8 57 -19z
m-8305 -832 c56 -26 75 -52 75 -102 0 -54 -24 -104 -70 -146 -39 -36 -39 -36
-29 -81 6 -25 8 -83 5 -129 -6 -96 -35 -167 -78 -191 -24 -13 -29 -13 -48 5
-12 11 -26 29 -30 40 -12 32 -134 88 -202 93 -50 4 -60 1 -81 -20 -34 -34 -44
-94 -20 -126 19 -26 91 -51 147 -52 l29 0 -24 -19 c-72 -56 -159 -69 -209 -33
l-27 21 -6 -65 c-2 -36 -7 -67 -9 -69 -2 -2 -33 8 -68 23 -83 35 -173 36 -242
5 -58 -26 -57 -27 -28 97 38 161 121 333 193 398 24 22 26 23 55 8 36 -19 65
-20 93 -5 30 16 13 29 -23 17 -29 -10 -33 -9 -56 17 -21 25 -24 36 -20 92 5
81 23 103 70 85 29 -11 36 -9 68 12 62 41 182 98 255 122 96 31 217 33 280 3z
m304 -95 c30 -8 64 -13 77 -10 13 4 24 3 24 -2 0 -4 139 -172 309 -372 l309
-364 -59 -33 c-36 -20 -73 -33 -95 -33 -46 0 -139 -21 -354 -80 -257 -71 -312
-81 -445 -87 -140 -6 -241 11 -302 51 -39 25 -177 76 -210 76 -32 1 -75 47
-71 77 3 24 7 26 54 29 31 1 72 13 103 28 28 15 51 22 51 16 0 -16 62 -50 90
-50 14 1 32 6 41 13 21 16 49 71 49 95 0 13 12 22 40 31 83 25 122 116 125
293 l2 116 35 41 c37 43 58 98 58 150 l0 31 58 0 c32 0 82 -7 111 -16z m-1039
-37 c0 -12 -28 -49 -65 -88 -62 -64 -95 -118 -95 -155 0 -9 15 -31 34 -50 25
-25 29 -34 19 -39 -31 -11 -56 -4 -85 25 -28 29 -30 35 -26 90 5 75 49 143
131 205 59 45 87 49 87 12z m25 -110 c0 -60 -2 -65 -45 -115 -49 -57 -75 -65
-91 -28 -15 31 8 73 79 148 30 32 55 58 56 58 1 0 1 -28 1 -63z m1884 -733
c45 -52 81 -98 81 -102 0 -6 -150 -75 -280 -130 -11 -4 -72 220 -63 229 6 6
173 98 179 99 1 0 38 -43 83 -96z m6979 -1429 c-21 -46 -23 -67 -26 -296 l-4
-245 -30 28 c-17 16 -50 34 -72 40 l-41 11 2 885 3 886 35 12 c55 18 101 59
127 111 l23 48 3 -715 2 -715 -22 -50z m-8526 1365 c35 -11 94 -38 133 -61
245 -148 487 -207 805 -196 134 5 296 23 372 42 22 6 23 3 23 -58 1 -51 7 -77
36 -137 43 -91 141 -216 203 -260 25 -18 43 -37 40 -41 -3 -5 -17 2 -32 16
-29 27 -43 26 -21 -2 12 -16 11 -16 -8 0 -13 12 -19 25 -15 35 5 15 4 16 -13
2 -13 -10 -16 -11 -11 -2 5 9 1 15 -13 19 -21 5 -25 14 -22 42 2 7 -2 10 -8 6
-7 -4 -8 1 -4 12 6 15 4 16 -8 6 -11 -9 -19 -7 -36 7 -28 23 -29 30 -3 23 20
-5 20 -5 -2 30 -25 38 -39 40 -32 4 3 -15 2 -17 -3 -7 -10 20 -32 24 -49 9
-18 -15 -18 -25 2 -33 12 -4 15 -2 10 9 -8 22 7 19 21 -5 8 -12 9 -21 3 -25
-6 -3 -10 -2 -10 3 0 5 -7 9 -15 9 -8 0 -15 -4 -15 -9 0 -4 4 -8 10 -8 5 0 9
-6 7 -12 -1 -7 4 -12 12 -10 9 2 12 -4 8 -18 -4 -17 -3 -19 8 -10 8 6 11 18 8
26 -3 8 0 14 6 14 6 0 11 -6 11 -14 0 -9 8 -12 24 -9 18 4 27 -1 36 -17 6 -12
9 -24 7 -27 -3 -2 -8 5 -12 16 -4 12 -15 21 -26 21 -11 0 -17 -5 -14 -10 4 -6
10 -8 15 -5 13 8 21 -26 9 -41 -8 -9 -8 -14 -1 -14 6 0 14 5 17 10 5 8 11 7
21 -1 12 -10 13 -9 8 5 -3 9 -2 16 3 16 9 0 13 -14 14 -55 0 -20 0 -20 15 -1
8 11 14 15 14 9 0 -19 60 -38 80 -25 10 6 28 8 41 4 26 -7 -29 -19 -296 -68
-204 -38 -428 -40 -585 -6 -390 85 -782 243 -925 374 -64 59 -95 64 -55 9 59
-84 284 -204 551 -296 142 -49 409 -120 490 -131 l48 -6 -28 -24 c-15 -13 -61
-62 -101 -109 -53 -62 -76 -82 -83 -73 -6 9 -7 8 -3 -4 3 -11 -23 -55 -77
-127 -102 -136 -151 -216 -144 -236 9 -21 37 -7 37 19 0 37 227 332 364 474
l70 72 83 0 c79 0 85 -1 145 -41 35 -22 62 -45 60 -51 -1 -5 2 -7 8 -3 5 3 19
0 30 -8 19 -13 18 -15 -18 -49 -53 -50 -104 -87 -215 -157 -129 -80 -176 -120
-250 -211 -85 -105 -139 -192 -229 -365 l-78 -150 0 86 c0 159 -59 312 -181
475 -82 109 -179 203 -416 400 -321 267 -407 377 -428 540 -7 51 29 215 60
274 31 60 118 112 216 129 76 14 226 4 301 -19z m1883 -63 c48 -99 94 -119
245 -106 49 5 84 3 99 -5 34 -15 46 -59 32 -108 -10 -33 -20 -43 -59 -60 -26
-11 -56 -31 -67 -43 -42 -48 -171 -149 -214 -169 -42 -19 -61 -21 -230 -19
-162 2 -185 5 -198 20 -25 32 -111 216 -124 266 -10 40 -9 51 2 62 22 21 253
144 348 186 120 53 129 52 166 -24z m12515 -487 c19 -19 20 -33 20 -357 0
-400 8 -373 -113 -373 -126 0 -117 -29 -117 376 l0 343 22 15 c15 11 46 16 95
16 60 0 77 -4 93 -20z m106 -91 c73 -141 49 -503 -36 -549 -20 -11 -20 -7 -20
295 0 302 0 306 20 295 11 -6 27 -24 36 -41z m-9388 -526 c-15 -2 -42 -2 -60
0 -18 2 -6 4 27 4 33 0 48 -2 33 -4z m7430 0 c-10 -2 -26 -2 -35 0 -10 3 -2 5
17 5 19 0 27 -2 18 -5z m-7428 -413 l0 -260 -40 0 -40 0 0 260 0 260 40 0 40
0 0 -260z m7420 0 l0 -260 -40 0 -40 0 0 260 0 260 40 0 40 0 0 -260z m-6769
113 c13 -16 12 -17 -3 -4 -10 7 -18 15 -18 17 0 8 8 3 21 -13z m-1107 -331
c114 -67 213 -123 218 -124 11 -4 -22 -68 -35 -68 -6 0 -419 234 -436 247 -8
6 29 74 37 70 4 -3 101 -59 216 -125z m1081 98 c8 -16 15 -31 15 -34 0 -6
-441 -259 -444 -255 -21 32 -37 62 -34 65 8 8 433 253 440 253 4 1 14 -12 23
-29z m6498 -192 c62 -36 67 -41 54 -56 -8 -10 -17 -25 -20 -34 -5 -14 -42 4
-224 109 -120 69 -221 128 -225 132 -4 3 2 20 13 38 l20 32 157 -91 c86 -50
188 -108 225 -130z m921 191 c10 -17 16 -32 14 -34 -6 -6 -438 -255 -443 -255
-8 0 -37 62 -31 67 8 8 430 253 436 253 3 0 14 -14 24 -31z m-7621 -599 c119
-69 217 -129 217 -135 0 -5 -8 -22 -18 -36 l-17 -26 -140 81 c-77 45 -177 102
-221 128 l-82 47 17 35 c9 20 18 34 21 33 3 -1 103 -58 223 -127z m7442 -15
c105 -60 191 -110 193 -111 2 -1 -5 -18 -15 -37 l-18 -35 -210 121 c-116 67
-216 126 -222 130 -9 6 -8 16 4 42 l17 35 30 -18 c17 -10 117 -67 221 -127z
m-8112 104 c10 -18 16 -33 15 -34 -2 -1 -102 -59 -222 -129 -166 -96 -221
-124 -228 -114 -23 34 -29 51 -21 58 11 11 425 250 432 250 3 0 14 -14 24 -31z
m7420 0 c10 -18 16 -33 15 -34 -29 -19 -427 -244 -436 -247 -6 -2 -21 11 -31
27 l-20 30 172 99 c95 54 192 111 217 127 25 15 50 28 55 28 6 1 18 -13 28
-30z m-7165 -376 l-3 -258 -37 -3 -38 -3 0 260 0 261 40 0 40 0 -2 -257z
m7412 -4 l0 -260 -37 3 -38 3 -3 258 -2 257 40 0 40 0 0 -261z m-103 -295 c-3
-3 -12 -4 -19 -1 -8 3 -5 6 6 6 11 1 17 -2 13 -5z m-7319 -121 c-15 -2 -42 -2
-60 0 -18 2 -6 4 27 4 33 0 48 -2 33 -4z m7410 0 c-16 -2 -40 -2 -55 0 -16 2
-3 4 27 4 30 0 43 -2 28 -4z"/>
<path d="M2880 11553 c0 -17 29 -100 50 -145 23 -50 80 -108 105 -108 24 0 17
13 -18 35 -37 24 -70 78 -96 160 -10 32 -23 61 -30 63 -6 2 -11 0 -11 -5z"/>
<path d="M2860 11388 c0 -7 9 -26 20 -43 11 -16 20 -36 20 -42 0 -16 -25 -17
-50 -1 -14 9 -22 10 -31 1 -15 -15 52 -47 81 -38 17 5 21 1 26 -24 6 -29 22
-40 37 -25 8 9 -81 184 -93 184 -6 0 -10 -6 -10 -12z"/>
<path d="M2520 10540 c0 -8 10 -10 27 -7 15 3 34 1 42 -3 9 -5 25 -11 35 -15
10 -3 17 -8 14 -11 -3 -2 -17 0 -32 6 -15 5 -43 10 -62 10 -19 0 -34 4 -34 10
0 10 -39 11 -73 3 -29 -7 -10 -20 25 -17 18 1 47 -2 64 -7 25 -8 31 -15 31
-39 0 -17 -5 -30 -11 -30 -6 0 -4 -5 4 -10 12 -7 10 -9 -7 -7 -16 1 -19 5 -12
13 7 8 6 14 -1 19 -5 3 -10 12 -10 18 0 7 4 6 10 -3 7 -12 9 -10 7 8 -1 21
-17 32 -17 12 0 -6 -8 -5 -20 2 -16 10 -23 9 -44 -11 -36 -34 -57 -103 -63
-208 -5 -82 -4 -93 11 -93 12 0 16 10 16 43 0 62 19 167 37 205 18 38 53 63
53 37 0 -9 -3 -14 -7 -12 -5 3 -17 -5 -28 -16 l-20 -20 23 13 c13 6 26 10 28
7 2 -2 -7 -10 -21 -17 -25 -14 -45 -62 -45 -110 0 -20 2 -22 11 -10 9 12 10
12 5 -3 -3 -10 -6 -21 -6 -23 0 -3 -4 -3 -8 0 -5 3 -9 -17 -9 -45 0 -27 4 -44
8 -37 4 7 11 9 16 5 18 -18 -60 -45 -81 -28 -11 9 -11 27 1 108 7 53 16 106
20 118 11 34 10 105 -1 105 -6 0 -5 4 3 9 28 18 -9 21 -51 4 -43 -16 -101 -58
-96 -67 2 -3 -6 -12 -17 -21 -11 -9 -14 -14 -8 -10 9 4 11 1 7 -10 -4 -9 -9
-13 -12 -10 -3 3 -14 -22 -23 -57 -12 -45 -14 -66 -7 -75 6 -7 8 -30 5 -51 -3
-20 -2 -56 2 -79 5 -24 4 -43 0 -43 -5 0 -9 12 -9 28 0 15 -5 34 -11 42 -19
28 0 -92 20 -127 6 -10 10 -13 11 -8 0 6 -4 16 -9 24 -6 10 -5 18 4 25 8 6 18
38 23 71 l10 60 -2 -77 c-1 -73 -7 -94 -20 -65 -3 6 -2 -8 1 -33 4 -24 15 -60
27 -79 20 -35 20 -35 27 -10 6 21 7 21 9 4 1 -11 2 -27 1 -35 -1 -9 1 -11 6
-5 4 6 14 10 21 9 6 -1 18 -2 25 -3 8 -1 8 -4 -3 -10 -8 -6 -17 -8 -21 -5 -4
2 -11 0 -14 -6 -4 -6 -2 -9 3 -8 6 2 9 0 8 -4 -1 -9 106 -118 117 -118 4 0 6
4 3 8 -3 5 1 9 9 9 11 0 12 -5 3 -21 -6 -12 -8 -18 -4 -14 4 3 23 -10 43 -30
19 -21 33 -32 30 -27 -3 6 6 11 19 11 13 1 24 -2 24 -8 0 -5 -4 -7 -9 -3 -5 3
-12 1 -16 -5 -10 -16 21 -12 35 5 7 8 18 15 24 14 7 0 6 -2 -1 -6 -7 -2 -13
-11 -13 -19 0 -9 -4 -13 -9 -9 -5 3 -12 1 -16 -5 -3 -6 2 -13 12 -17 10 -3 25
-15 35 -26 12 -15 20 -18 30 -11 7 6 24 11 38 11 14 1 19 -1 13 -4 -7 -3 -13
-11 -13 -19 0 -8 -5 -14 -11 -14 -5 0 -8 4 -4 9 3 5 1 12 -5 16 -25 15 -7 -23
21 -45 17 -14 42 -36 57 -50 17 -17 23 -19 19 -8 -9 24 17 43 40 28 17 -11 17
-11 0 -6 -12 4 -17 2 -15 -6 3 -7 10 -13 15 -13 6 0 14 -3 18 -7 9 -8 -16 -5
-32 5 -8 5 -11 1 -10 -12 1 -12 6 -17 17 -13 8 3 12 1 7 -3 -9 -11 21 -45 40
-45 9 0 11 -5 7 -12 -5 -8 -1 -7 10 1 16 13 17 13 14 0 -3 -17 36 -72 45 -62
4 3 10 -3 13 -13 9 -26 75 -94 86 -88 7 4 12 -10 6 -18 -1 -2 4 -13 11 -25 11
-21 13 -22 49 -9 52 20 72 17 83 -12 5 -14 7 -27 4 -30 -3 -3 -5 1 -5 9 0 12
-2 11 -10 -1 -8 -11 -9 -7 -4 14 7 29 7 29 -13 10 -11 -10 -28 -25 -39 -32
-17 -11 -16 -12 10 -7 l30 6 -23 -18 -22 -18 20 -26 c11 -15 18 -29 14 -32 -3
-4 2 -9 11 -13 9 -3 13 -10 11 -15 -3 -4 3 -25 13 -46 24 -47 51 -162 55 -225
2 -54 7 -59 24 -22 10 21 9 25 -1 21 -7 -3 -13 1 -13 8 0 7 8 10 16 8 12 -3
25 13 46 54 16 32 30 67 31 77 1 11 11 28 23 37 11 9 21 22 21 27 0 5 7 15 15
22 9 7 14 19 11 26 -3 7 0 16 6 20 7 5 8 2 3 -6 -5 -9 -4 -11 3 -6 16 10 15
22 -4 40 -14 14 -14 16 0 16 8 0 20 8 25 18 6 9 11 12 11 5 0 -6 -4 -15 -10
-18 -5 -3 -10 -12 -10 -18 0 -7 14 4 30 23 16 19 39 45 51 58 12 12 17 22 11
22 -6 0 -14 -5 -17 -10 -9 -15 -24 -2 -22 20 1 10 4 17 8 14 4 -2 9 -1 12 3 2
5 2 2 1 -4 -2 -7 3 -13 11 -13 18 0 87 59 80 70 -2 4 7 12 20 18 14 7 25 16
25 22 0 6 6 8 13 4 8 -5 7 -2 -2 9 -8 10 -11 20 -7 24 3 3 6 1 6 -5 0 -7 6
-12 13 -12 18 0 51 36 43 48 -3 5 1 9 9 9 8 0 11 -5 8 -11 -4 -6 0 -5 9 1 8 7
17 11 20 8 3 -3 11 1 18 10 7 8 19 15 27 15 8 0 11 5 7 12 -5 8 -2 9 9 5 11
-4 23 3 37 20 11 14 20 23 20 19 0 -4 14 0 30 9 17 9 30 21 30 27 0 6 -8 4
-18 -5 -25 -23 -28 -22 -28 13 0 17 3 30 8 30 4 0 7 5 6 11 -2 6 3 14 11 17 8
2 11 0 7 -6 -3 -6 -2 -13 4 -17 5 -3 11 -1 11 4 1 6 2 16 3 21 0 6 8 15 16 20
8 5 12 11 10 13 -3 2 -21 14 -40 26 l-35 23 28 -26 c31 -29 32 -32 11 -40 -9
-3 -12 -2 -9 4 9 14 -45 76 -63 72 -9 -2 -11 1 -6 10 6 10 4 10 -9 -1 -11 -9
-17 -10 -17 -2 0 7 -21 11 -55 11 -53 0 -70 -11 -41 -27 12 -7 12 -10 0 -21
-8 -8 -14 -9 -15 -2 -1 5 -2 14 -3 20 0 5 -8 15 -16 22 -12 11 -12 11 0 -6 14
-18 13 -19 -4 -13 -23 9 -56 -22 -52 -49 3 -17 -32 -54 -50 -54 -5 0 2 7 14
16 12 8 20 19 17 24 -3 4 0 11 5 13 6 3 5 4 -2 3 -7 -2 -13 -7 -13 -12 0 -5
-19 -27 -42 -48 -24 -21 -43 -42 -43 -48 0 -5 -16 -26 -36 -48 -55 -59 -83
-101 -78 -115 3 -7 1 -16 -4 -19 -5 -3 -8 -17 -6 -32 1 -14 0 -23 -3 -20 -4 3
-13 0 -22 -7 -14 -10 -14 -10 -3 5 8 9 10 23 6 29 -5 8 -3 10 7 4 8 -5 11 -5
7 0 -4 4 -3 14 3 22 22 26 -2 13 -25 -14 -15 -17 -23 -37 -20 -53 2 -14 1 -19
-2 -12 -6 13 -26 17 -21 4 1 -4 -1 -7 -6 -7 -12 0 -56 -79 -50 -89 3 -5 -9
-21 -27 -36 -30 -24 -31 -28 -16 -43 9 -8 12 -18 8 -21 -5 -3 -9 -20 -10 -38
0 -20 2 -27 7 -19 5 7 7 -6 6 -31 -1 -24 2 -46 7 -49 5 -3 3 -9 -4 -12 -9 -3
-15 3 -16 19 -5 54 -7 62 -13 59 -3 -3 -4 7 -1 21 3 20 0 26 -17 31 -11 3 -21
10 -21 15 0 5 5 6 10 3 6 -3 10 0 10 7 0 10 3 9 10 -2 5 -8 12 -11 17 -7 4 5
2 11 -4 15 -6 4 -11 31 -12 60 0 40 4 58 19 74 11 12 17 25 14 30 -3 4 -1 8 4
8 17 0 52 64 42 74 -6 6 -10 17 -10 25 0 12 3 11 13 -3 14 -18 20 -13 87 71
24 30 48 83 40 88 -11 7 -7 50 6 50 5 0 8 -2 7 -5 -15 -43 -15 -45 6 -20 18
21 20 21 15 5 -7 -18 -4 -18 19 4 28 26 36 40 14 25 -7 -5 -5 -2 5 8 19 17 25
33 9 24 -5 -4 -8 2 -6 11 2 10 4 18 5 18 1 0 3 9 5 19 2 10 9 22 15 26 14 9
61 0 55 -10 -2 -4 -15 -5 -29 -3 -13 3 -27 -1 -31 -8 -6 -9 -3 -11 11 -6 15 6
14 3 -5 -11 -20 -17 -21 -20 -7 -25 10 -4 15 -3 11 3 -3 6 -2 10 4 10 5 0 31
20 58 45 44 42 46 45 23 46 -14 0 -32 2 -40 5 -8 2 -35 8 -60 13 -25 4 -53 12
-63 16 -10 4 -24 2 -32 -5 -8 -6 -20 -10 -27 -7 -8 4 -7 6 5 6 29 2 19 18 -15
25 -18 4 -36 2 -42 -4 -8 -8 -6 -9 5 -5 10 4 16 0 16 -10 0 -8 -6 -15 -14 -15
-13 0 -17 12 -14 37 2 11 -63 30 -83 24 -5 -1 -12 3 -17 10 -4 6 -20 12 -37
13 -17 0 -28 4 -26 8 3 4 -8 6 -23 4 -15 -2 -21 -1 -13 1 11 4 -99 52 -155 67
-13 4 -83 35 -110 48 -11 6 -17 7 -13 3 5 -5 -2 -15 -13 -23 -16 -11 -18 -17
-8 -22 7 -5 2 -7 -14 -7 l-26 2 26 28 c33 33 13 37 -20 3 -17 -16 -28 -21 -38
-15 -12 7 -11 9 2 9 18 0 55 37 47 46 -3 3 -13 -2 -22 -11 -9 -9 -16 -13 -16
-8 0 5 5 14 12 21 9 9 7 12 -11 12 -12 0 -19 4 -16 10 3 6 -1 7 -9 4 -9 -3
-13 -11 -10 -16 4 -6 -2 -5 -14 1 -11 6 -22 8 -25 3 -2 -4 -2 -1 -1 6 2 6 -5
12 -16 12 -12 0 -26 13 -36 33 l-17 32 27 -28 c14 -15 31 -25 37 -22 6 4 -8
21 -33 38 -23 18 -44 31 -46 29 -2 -2 -17 15 -33 38 -16 22 -34 38 -39 35 -5
-3 -5 7 0 25 5 17 5 28 0 25 -5 -3 -12 0 -16 6 -4 8 3 9 27 4 19 -4 35 -11 37
-15 5 -13 40 -51 46 -51 20 3 27 0 22 -8 -6 -9 14 -28 50 -48 18 -10 23 -9 30
8 8 18 11 18 29 5 17 -13 18 -17 5 -25 -8 -6 -17 -8 -19 -5 -3 3 1 9 9 14 13
8 12 10 -2 10 -10 0 -18 -6 -18 -14 0 -16 47 -49 59 -41 5 3 11 2 13 -3 6 -14
77 -54 87 -48 5 3 14 0 20 -8 11 -13 44 -26 65 -25 5 1 13 -5 17 -13 6 -9 11
-10 17 -2 9 14 45 27 37 14 -3 -6 -2 -10 4 -10 5 0 13 5 16 10 4 7 12 7 25 0
26 -14 50 -13 30 1 -10 7 -11 9 -2 7 23 -6 12 -23 -14 -21 -13 1 -22 -2 -19
-7 3 -5 0 -12 -6 -16 -7 -4 -9 -3 -5 4 10 16 -10 24 -23 8 -9 -11 -6 -15 13
-20 13 -3 32 -9 43 -13 16 -6 17 -5 3 12 -10 13 -11 16 -2 11 8 -5 20 -2 30 7
16 14 17 13 19 -10 1 -18 -2 -22 -7 -12 -5 7 -13 10 -17 5 -16 -15 30 -36 73
-32 23 2 48 -1 56 -6 8 -5 4 -7 -14 -4 -15 3 -31 -1 -34 -7 -4 -7 -4 -9 0 -5
4 3 26 0 48 -8 51 -18 58 -17 33 3 -11 8 -13 13 -5 10 50 -18 53 -18 26 1
l-29 20 26 -1 c14 -1 23 -5 20 -10 -2 -4 3 -10 12 -13 14 -6 14 -7 -1 -18 -17
-13 -20 -11 88 -42 14 -4 16 -1 11 13 -6 15 -3 14 16 -4 27 -25 110 -46 96
-24 -3 5 0 13 6 17 8 4 9 3 5 -4 -4 -8 0 -12 11 -12 15 0 16 -2 3 -10 -12 -7
-8 -10 15 -11 17 0 45 -2 63 -5 18 -2 32 1 32 7 0 6 8 3 17 -7 15 -15 31 -16
133 -10 63 4 123 8 133 7 9 0 15 4 13 8 -3 4 9 8 27 9 65 2 190 19 217 29 17
6 31 9 73 11 16 1 26 6 22 12 -3 5 -13 6 -22 3 -12 -5 -14 -3 -8 8 5 8 -2 5
-15 -6 -13 -11 -20 -15 -17 -8 4 6 2 15 -4 19 -7 4 -9 3 -6 -3 4 -6 -5 -15
-18 -21 -17 -8 -26 -8 -31 -1 -4 8 -9 7 -15 -2 -7 -11 -9 -10 -9 4 0 9 -3 17
-7 18 -5 0 -24 2 -43 3 -45 2 -60 12 -59 39 l0 22 9 -21 c5 -12 20 -24 33 -26
l25 -5 -26 29 c-15 16 -36 40 -48 52 -11 13 -18 29 -16 36 3 7 0 10 -7 6 -7
-4 -9 -2 -5 7 3 8 1 18 -5 22 -6 3 -11 22 -11 41 0 20 -4 33 -9 29 -6 -3 -15
3 -20 14 -16 29 -13 39 4 17 11 -14 15 -15 14 -5 -1 19 -17 57 -18 43 -1 -7
-9 -15 -18 -18 -13 -5 -12 -1 6 18 19 20 22 32 17 65 -3 22 -2 43 3 45 4 3 11
-29 15 -72 16 -190 91 -322 198 -348 25 -5 27 -4 26 26 -1 17 -4 26 -8 20 -12
-19 -58 0 -94 40 -40 45 -74 129 -82 208 -3 31 -8 66 -9 77 -2 11 -4 30 -4 43
-1 19 -5 22 -28 17 -15 -2 -31 1 -36 8 -6 8 -7 6 -3 -5 7 -22 -9 -24 -17 -3
-8 19 1 23 45 19 21 -2 40 2 44 8 4 7 3 8 -4 4 -7 -4 -12 -5 -12 -2 0 3 8 10
18 15 16 8 17 4 15 -46 -1 -44 1 -54 13 -49 9 3 17 -1 20 -12 3 -9 10 -25 15
-34 7 -13 5 -16 -6 -12 -8 4 -15 17 -15 30 0 17 -4 22 -15 18 -8 -4 -15 -10
-15 -16 0 -5 5 -6 10 -3 6 3 10 -1 10 -9 0 -8 7 -22 16 -31 9 -9 14 -19 11
-22 -7 -6 -31 16 -40 37 -3 10 -6 7 -6 -8 -1 -13 9 -32 22 -42 12 -10 18 -22
14 -26 -4 -5 -13 -2 -18 6 -8 12 -9 9 -5 -10 3 -14 6 -29 6 -34 0 -5 7 -3 15
4 8 7 15 21 15 32 0 16 2 17 14 6 8 -7 11 -17 8 -22 -3 -5 0 -6 6 -2 7 4 12
13 12 19 0 20 -56 157 -62 152 -3 -3 -8 1 -11 10 -4 8 -2 15 3 15 6 0 10 16
10 36 0 36 -1 36 -32 30 -18 -3 -56 -9 -85 -12 -28 -4 -52 -9 -51 -13 2 -18
-3 -31 -12 -31 -5 0 -10 6 -10 13 0 9 -56 12 -248 12 -203 1 -258 4 -309 18
-33 9 -68 14 -77 11 -9 -3 -16 -1 -16 5 0 6 -5 11 -11 11 -5 0 -8 -4 -5 -9 4
-5 0 -12 -6 -14 -7 -3 -3 -6 9 -6 12 -1 25 -6 29 -12 4 -8 -1 -9 -17 -3 -13 4
-36 8 -52 9 -28 2 -51 15 -26 15 11 0 11 2 -1 10 -13 8 -12 10 4 10 12 0 16
-5 12 -15 -6 -16 2 -19 21 -7 17 11 1 31 -27 34 -14 2 -27 5 -30 8 -3 3 -23
13 -44 23 -29 13 -42 15 -50 7 -8 -9 -6 -11 9 -8 13 2 20 -3 22 -17 2 -15 1
-16 -5 -5 -4 8 -17 15 -30 14 -17 -1 -20 2 -11 12 13 16 -19 39 -68 49 -28 6
-32 4 -27 -10 4 -9 13 -14 20 -11 16 6 16 0 4 -29 -9 -20 -9 -20 -15 2 -4 13
-18 24 -36 28 -16 4 -29 10 -29 14 0 4 -14 6 -30 3 -37 -5 -60 12 -60 45 0 21
3 22 20 13 19 -10 25 -6 21 14 -1 5 6 3 16 -4 28 -22 29 -24 11 -17 -10 3 -20
2 -23 -4 -4 -5 -12 -6 -18 -2 -8 4 -7 1 1 -9 10 -13 10 -17 0 -21 -9 -4 -7 -6
4 -6 23 -1 49 10 43 19 -6 9 45 4 53 -6 4 -4 -2 -4 -12 0 -16 5 -17 4 -7 -8
10 -12 17 -13 32 -3 18 11 17 12 -9 26 -15 7 -35 20 -44 29 -10 8 -18 11 -18
7 0 -4 -9 0 -20 10 -11 10 -36 18 -59 19 -22 0 -35 3 -29 7 5 3 -2 9 -17 13
-14 4 -31 4 -37 0 -5 -4 -13 -2 -17 4 -10 15 -131 27 -131 12z m-220 -65 c-11
-13 -9 -15 8 -12 11 2 27 8 35 15 11 10 17 9 26 -1 14 -17 2 -30 -15 -16 -8 7
-14 7 -19 -1 -3 -5 0 -10 7 -10 8 0 6 -5 -5 -11 -9 -5 -21 -8 -26 -4 -5 3 -11
2 -14 -2 -2 -5 -2 -3 -1 4 2 7 -1 15 -6 18 -11 6 -14 -7 -10 -40 1 -11 0 -18
-3 -15 -8 9 -30 55 -22 48 4 -4 16 4 27 17 11 14 22 25 25 25 3 0 0 -7 -7 -15z
m70 -121 c-6 -14 -10 -40 -11 -57 0 -18 -3 -26 -6 -19 -2 6 -9 10 -14 6 -5 -3
-9 0 -9 5 0 6 5 11 10 11 6 0 10 9 10 20 0 13 -5 18 -15 14 -17 -7 -19 17 -6
51 8 18 10 16 19 -15 l10 -35 2 45 c1 38 3 41 10 22 6 -13 6 -32 0 -48z m186
19 c-7 -7 -26 7 -26 19 0 6 6 6 15 -2 9 -7 13 -15 11 -17z m434 -4 c0 -5 -6
-8 -12 -6 -7 1 -12 -5 -10 -13 3 -12 1 -12 -9 -3 -16 16 -4 44 16 37 8 -3 15
-10 15 -15z m-755 1 c-4 -6 -9 -23 -11 -37 -7 -35 -14 -43 -14 -14 0 23 16 61
26 61 3 0 2 -5 -1 -10z m241 -47 c-3 -4 -6 -1 -6 6 0 7 -4 9 -10 6 -6 -4 -7 1
-3 11 6 15 7 15 15 -1 6 -9 7 -19 4 -22z m59 27 c3 -5 1 -10 -4 -10 -6 0 -11
5 -11 10 0 6 2 10 4 10 3 0 8 -4 11 -10z m-298 -52 c-3 -8 -6 -5 -6 6 -1 11 2
17 5 13 3 -3 4 -12 1 -19z m863 3 c0 -15 -15 -21 -38 -14 -32 8 -27 23 8 23
17 0 30 -4 30 -9z m155 -20 c3 -5 0 -13 -6 -17 -7 -4 -9 -3 -5 4 3 5 0 13 -6
15 -9 4 -10 6 -1 6 6 1 14 -3 18 -8z m-1026 -28 c0 -25 -1 -25 -8 -8 -5 11 -7
23 -4 28 8 14 13 7 12 -20z m250 -18 c0 -5 -4 -3 -9 5 -5 8 -9 22 -9 30 0 16
17 -16 18 -35z m-123 -4 c0 -15 -3 -17 -13 -9 -7 6 -10 14 -7 19 9 15 20 10
20 -10z m1404 9 c0 -5 -15 -10 -32 -9 -31 1 -32 1 -8 9 35 11 40 11 40 0z
m-117 -7 c-24 -2 -62 -2 -85 0 -24 2 -5 4 42 4 47 0 66 -2 43 -4z m-1426 -65
c-2 -13 -4 -5 -4 17 -1 22 1 32 4 23 2 -10 2 -28 0 -40z m71 28 c3 -12 -1 -17
-10 -14 -7 3 -15 13 -16 22 -3 12 1 17 10 14 7 -3 15 -13 16 -22z m55 -13 c-8
-21 -18 -15 -19 11 -2 20 1 22 11 13 7 -7 10 -18 8 -24z m1362 27 c-3 -5 -10
-10 -16 -10 -5 0 -9 5 -9 10 0 6 7 10 16 10 8 0 12 -4 9 -10z m135 6 c0 -3 -4
-8 -10 -11 -5 -3 -10 -1 -10 4 0 6 5 11 10 11 6 0 10 -2 10 -4z m90 -40 c-5
-15 -14 -24 -20 -21 -6 4 -3 15 7 30 22 29 27 26 13 -9z m-695 14 c3 -5 -3
-10 -15 -10 -12 0 -18 5 -15 10 3 6 10 10 15 10 5 0 12 -4 15 -10z m268 3
c-13 -2 -33 -2 -45 0 -13 2 -3 4 22 4 25 0 35 -2 23 -4z m-933 -25 c0 8 5 10
13 5 21 -13 49 -14 41 -1 -4 7 -3 8 4 4 6 -4 9 -13 5 -22 -4 -12 -8 -12 -21
-2 -10 8 -7 0 6 -18 12 -17 18 -35 14 -39 -4 -4 3 -5 14 -1 15 4 24 2 28 -9 3
-8 1 -15 -4 -15 -6 0 -10 5 -10 11 0 5 -5 7 -10 4 -13 -8 -42 14 -35 25 2 4
-4 15 -15 25 -11 10 -20 15 -20 10 0 -4 -7 -2 -15 5 -8 7 -15 18 -15 24 0 6 5
4 10 -4 7 -11 10 -11 10 -2z m-210 -18 c0 -5 -2 -10 -4 -10 -3 0 -8 5 -11 10
-3 6 -1 10 4 10 6 0 11 -4 11 -10z m360 -10 c0 -5 -4 -10 -10 -10 -5 0 -10 5
-10 10 0 6 5 10 10 10 6 0 10 -4 10 -10z m-300 -11 c0 -5 -4 -8 -9 -4 -5 3
-12 1 -16 -5 -8 -13 -25 -13 -25 -1 0 8 16 16 43 20 4 0 7 -4 7 -10z m240 1
c0 -5 -7 -10 -15 -10 -8 0 -15 5 -15 10 0 6 7 10 15 10 8 0 15 -4 15 -10z
m-223 -26 c-3 -3 -12 -4 -19 -1 -8 3 -5 6 6 6 11 1 17 -2 13 -5z m93 -36 c11
-21 24 -32 36 -31 11 1 14 0 8 -3 -7 -3 -10 -15 -8 -27 4 -21 4 -21 -6 1 -8
18 -15 22 -32 17 -17 -5 -19 -4 -9 3 21 15 6 45 -17 33 -14 -8 -18 -5 -18 12
0 20 15 41 24 32 2 -2 12 -18 22 -37z m1570 -3 c0 -5 -5 -3 -10 5 -5 8 -10 20
-10 25 0 6 5 3 10 -5 5 -8 10 -19 10 -25z m-1660 11 c0 -3 -4 -8 -10 -11 -5
-3 -10 -1 -10 4 0 6 5 11 10 11 6 0 10 -2 10 -4z m1437 -33 c-3 -10 -5 -4 -5
12 0 17 2 24 5 18 2 -7 2 -21 0 -30z m76 -25 c-7 -12 -20 -9 -20 5 0 6 -4 21
-8 32 -7 16 -4 15 12 -5 12 -14 19 -28 16 -32z m-1445 18 c-7 -8 -17 -12 -22
-9 -4 3 -2 9 5 14 22 13 31 11 17 -5z m-264 -22 c3 -8 2 -12 -4 -9 -6 3 -10
10 -10 16 0 14 7 11 14 -7z m609 -10 c-2 -7 0 -15 6 -18 5 -4 12 3 16 14 8 25
25 26 25 1 0 -28 -30 -35 -54 -12 -14 13 -29 18 -43 15 -11 -3 -23 -2 -26 3
-3 4 14 8 38 8 28 0 41 -3 38 -11z m147 -16 c0 -4 -12 -8 -26 -8 -14 0 -23 4
-20 8 2 4 14 8 25 8 12 0 21 -4 21 -8z m970 2 c0 -5 -4 -10 -10 -10 -5 0 -10
5 -10 10 0 6 5 10 10 10 6 0 10 -4 10 -10z m-1710 -10 c8 -5 11 -10 5 -10 -5
0 -17 5 -25 10 -8 5 -10 10 -5 10 6 0 17 -5 25 -10z m96 -5 c11 -27 -1 -39
-19 -21 -9 10 -17 22 -17 27 0 15 30 10 36 -6z m479 5 c3 -6 -1 -7 -9 -4 -18
7 -21 14 -7 14 6 0 13 -4 16 -10z m-245 -10 c0 -5 -5 -10 -11 -10 -5 0 -7 5
-4 10 3 6 8 10 11 10 2 0 4 -4 4 -10z m450 6 c0 -2 -7 -6 -15 -10 -8 -3 -15
-1 -15 4 0 6 7 10 15 10 8 0 15 -2 15 -4z m935 -25 c-3 -6 -11 -11 -17 -11 -6
0 -6 6 2 15 14 17 26 13 15 -4z m-1015 -4 c0 -8 -7 -14 -15 -14 -16 0 -19 9
-8 20 11 11 23 8 23 -6z m-133 -54 c-4 -3 -2 -12 4 -20 9 -9 8 -13 0 -13 -6 0
-11 2 -11 4 0 2 -3 11 -6 20 -4 10 -1 16 7 16 7 0 9 -3 6 -7z m43 -18 c0 -12
-19 -12 -23 0 -4 9 -1 12 9 8 7 -3 14 -7 14 -8z m-504 -10 c-1 -9 -5 -15 -9
-15 -4 0 -12 0 -17 0 -6 0 -5 6 2 15 17 19 27 19 24 0z m1647 -10 c-7 -21 -12
-19 -10 4 0 11 5 18 9 15 4 -3 5 -11 1 -19z m-1618 -4 c-3 -6 2 -14 11 -19 14
-8 14 -10 -5 -15 -11 -3 -24 0 -28 5 -4 7 -1 8 7 3 10 -6 12 -4 7 7 -3 9 -3
19 0 22 10 9 15 7 8 -3z m165 -1 c0 -5 -4 -10 -10 -10 -5 0 -10 5 -10 10 0 6
5 10 10 10 6 0 10 -4 10 -10z m785 -8 c17 -12 15 -30 -5 -35 -16 -4 -18 -2
-10 13 8 14 6 20 -8 23 -12 3 -13 5 -2 6 8 0 20 -3 25 -7z m95 -10 c0 -4 -10
-9 -22 -9 -18 -2 -20 0 -8 7 18 12 30 13 30 2z m-916 -28 c3 -8 2 -14 -2 -14
-10 0 -32 22 -32 32 0 12 28 -2 34 -18z m480 11 c3 -8 1 -15 -3 -15 -5 0 -11
7 -15 15 -3 8 -1 15 3 15 5 0 11 -7 15 -15z m1034 -23 c-13 -6 -39 19 -32 30
3 5 14 1 24 -9 9 -10 13 -20 8 -21z m-1063 7 c-4 -5 6 -9 20 -9 14 0 24 -4 20
-10 -9 -14 -49 5 -53 25 -3 11 0 15 7 10 6 -3 9 -11 6 -16z m575 11 c0 -5 -7
-10 -15 -10 -8 0 -15 5 -15 10 0 6 7 10 15 10 8 0 15 -4 15 -10z m-492 -38 c6
-18 -15 -14 -22 4 -4 10 -1 14 6 12 6 -2 14 -10 16 -16z m948 1 c-2 -10 -11
-19 -22 -20 -18 -3 -18 -2 1 6 14 7 15 10 5 10 -13 1 -13 2 0 11 19 13 19 13
16 -7z m-1098 -4 c-2 -6 -8 -10 -13 -10 -5 0 -11 4 -13 10 -2 6 4 11 13 11 9
0 15 -5 13 -11z m706 0 c-3 -5 2 -9 11 -9 9 0 13 4 10 10 -3 6 1 7 10 3 13 -5
14 -7 3 -14 -19 -12 -49 -10 -76 4 -22 13 -21 13 13 14 19 1 32 -3 29 -8z m99
4 c-7 -2 -19 -2 -25 0 -7 3 -2 5 12 5 14 0 19 -2 13 -5z m88 -11 c-18 -2 -37
0 -42 5 -5 5 11 6 34 3 41 -4 41 -5 8 -8z m139 4 c0 -2 -19 -3 -42 -3 -38 -1
-40 0 -13 6 26 6 55 4 55 -3z m120 8 c0 -8 -19 -13 -24 -6 -3 5 1 9 9 9 8 0
15 -2 15 -3z m-1571 -18 c9 -10 9 -16 1 -21 -13 -8 -42 14 -34 26 8 13 20 11
33 -5z m667 -1 c10 -8 27 -15 37 -15 10 0 15 -4 12 -10 -7 -12 -3 -12 20 -4
13 5 14 8 3 15 -10 7 -9 9 5 9 9 0 17 -7 17 -15 0 -8 -8 -15 -17 -15 -15 0
-16 -2 -3 -10 13 -9 13 -10 0 -10 -9 0 -22 6 -29 13 -11 10 -14 10 -18 0 -3
-7 -9 -13 -14 -13 -6 0 -7 5 -3 12 4 6 -5 21 -22 35 -31 25 -21 33 12 8z m544
-10 c0 -12 -19 -12 -23 0 -4 9 -1 12 9 8 7 -3 14 -7 14 -8z m60 -1 c0 -2 -9
-4 -20 -4 -11 0 -20 4 -20 9 0 5 9 7 20 4 11 -3 20 -7 20 -9z m140 -1 c0 -3
-13 -3 -30 -1 -16 3 -30 1 -30 -4 0 -5 -16 -8 -35 -6 -46 3 -45 16 3 20 41 3
92 -2 92 -9z m-899 -28 c-1 -15 -24 -12 -29 3 -3 9 2 13 12 10 10 -1 17 -7 17
-13z m139 11 c0 -3 -4 -8 -10 -11 -5 -3 -10 -1 -10 4 0 6 5 11 10 11 6 0 10
-2 10 -4z m-518 -48 c-7 -7 -12 -26 -13 -42 l-1 -31 -10 27 c-9 27 4 57 27 58
5 0 4 -5 -3 -12z m927 -15 c3 -2 -1 -9 -9 -16 -10 -10 -11 -9 -5 2 6 11 3 13
-12 9 -11 -3 -28 -1 -38 4 -12 8 -20 7 -26 -3 -4 -7 -11 -10 -14 -7 -17 17 9
27 53 21 26 -3 49 -8 51 -10z m-912 -25 c-3 -8 -6 -5 -6 6 -1 11 2 17 5 13 3
-3 4 -12 1 -19z m1193 0 c0 -5 -6 -8 -12 -9 -7 0 -29 -2 -48 -4 -22 -2 -29 -1
-20 5 10 6 5 10 -16 13 -16 2 -1 4 33 3 35 0 63 -4 63 -8z m-170 -18 c0 -5 -4
-10 -10 -10 -5 0 -10 5 -10 10 0 6 5 10 10 10 6 0 10 -4 10 -10z m-954 -15
c-17 -13 -18 -15 -3 -15 9 0 17 -5 17 -11 0 -6 -9 -8 -22 -4 -22 6 -22 6 2
-14 28 -23 15 -29 -15 -7 -18 13 -18 15 -2 40 10 14 23 26 30 26 6 0 3 -7 -7
-15z m1148 -25 c-6 -6 -10 -3 -10 10 0 13 4 16 10 10 7 -7 7 -13 0 -20z m-64
-50 c0 -5 -9 -10 -21 -10 -11 0 -17 5 -14 10 3 6 13 10 21 10 8 0 14 -4 14
-10z m-276 -25 c-4 -8 -11 -15 -16 -15 -6 0 -5 6 2 15 7 8 14 15 16 15 2 0 1
-7 -2 -15z m316 11 c0 -2 -8 -10 -17 -17 -16 -13 -17 -12 -4 4 13 16 21 21 21
13z m-970 -63 c14 4 17 -1 15 -27 -2 -17 2 -38 8 -46 11 -13 10 -13 -6 -1 -10
8 -16 20 -13 27 6 15 -9 27 -39 31 -11 2 -24 8 -30 14 -7 8 -3 9 13 4 12 -3
22 -3 21 2 -3 18 4 27 8 10 3 -12 11 -17 23 -14z m660 23 c0 -11 -19 -15 -25
-6 -3 5 1 10 9 10 9 0 16 -2 16 -4z m208 -8 c-6 -18 -25 -21 -25 -3 0 8 7 15
15 15 7 0 12 -5 10 -12z m-368 -12 c-6 -8 -19 -12 -27 -9 -12 5 -14 3 -8 -8 7
-11 6 -12 -7 -2 -8 7 -19 9 -23 5 -5 -4 -5 -2 -2 5 4 6 18 10 32 8 14 -1 28 2
31 6 3 5 8 9 11 9 3 0 0 -6 -7 -14z m404 -11 c3 -9 -3 -19 -15 -26 -28 -15
-34 -5 -12 20 21 25 19 25 27 6z m-270 -21 c11 -29 6 -37 -11 -21 -15 13 -21
13 -35 3 -10 -7 -18 -16 -18 -20 0 -14 -29 -36 -34 -27 -3 5 1 12 9 15 8 3 14
10 13 16 -3 9 47 47 63 49 4 1 10 -6 13 -15z m216 -18 c0 -3 -7 -6 -15 -6 -9
0 -15 9 -15 21 0 18 2 19 15 5 8 -8 15 -17 15 -20z m-377 11 l22 18 -19 -22
c-10 -13 -23 -20 -29 -16 -6 4 -8 0 -4 -9 3 -9 0 -23 -6 -32 -10 -14 -12 -10
-11 21 2 56 4 60 15 40 10 -18 12 -18 32 0z m-413 -47 c0 -5 8 -10 18 -10 14
0 15 2 2 10 -9 6 -10 10 -3 10 20 0 24 -18 6 -28 -11 -7 -21 -6 -30 3 -16 16
-17 25 -3 25 6 0 10 -4 10 -10z m318 -10 c-7 -11 -16 -20 -20 -20 -11 0 -10 9
5 25 18 21 29 18 15 -5z m416 4 c3 -8 2 -12 -4 -9 -6 3 -10 10 -10 16 0 14 7
11 14 -7z m-253 -29 c5 4 6 -1 3 -9 -3 -9 -1 -16 5 -16 6 0 11 5 11 10 0 6 4
10 8 10 5 0 9 -6 9 -13 0 -8 -12 -13 -29 -13 -20 0 -27 4 -24 13 3 7 1 13 -5
13 -6 0 -7 5 -3 12 6 9 9 9 12 0 2 -7 8 -10 13 -7z m239 5 c0 -5 -5 -10 -11
-10 -5 0 -7 5 -4 10 3 6 8 10 11 10 2 0 4 -4 4 -10z m-656 -12 c7 -7 15 -22
20 -33 6 -16 9 -17 16 -5 6 8 10 11 11 5 5 -40 6 -68 2 -57 -3 6 -9 10 -14 6
-5 -3 -9 -2 -8 3 4 22 -3 31 -21 28 -23 -4 -51 30 -43 51 6 17 21 18 37 2z
m228 -23 c3 -14 1 -25 -3 -25 -5 0 -9 11 -9 25 0 14 2 25 4 25 2 0 6 -11 8
-25z m362 -17 c-3 -4 -12 -8 -21 -8 -9 0 -13 -6 -10 -15 6 -15 -10 -32 -20
-21 -9 9 24 53 41 53 8 0 13 -4 10 -9z m-349 -28 c-3 -5 -10 -10 -16 -10 -5 0
-9 5 -9 10 0 6 7 10 16 10 8 0 12 -4 9 -10z m-175 -44 c0 -2 -7 -7 -16 -10 -8
-3 -12 -2 -9 4 6 10 25 14 25 6z m120 -11 c0 -8 -2 -15 -4 -15 -2 0 -6 7 -10
15 -3 8 -1 15 4 15 6 0 10 -7 10 -15z m330 11 c0 -3 -4 -8 -10 -11 -5 -3 -10
-1 -10 4 0 6 5 11 10 11 6 0 10 -2 10 -4z m-210 -30 c0 -8 -9 -17 -19 -21 -13
-4 -18 -13 -16 -25 2 -11 0 -20 -6 -20 -5 0 -9 -4 -9 -8 0 -5 12 -8 28 -7 15
1 18 0 7 -2 -11 -2 -30 -18 -42 -36 -16 -21 -23 -26 -23 -15 0 9 8 22 18 27
19 11 3 15 -22 5 -9 -3 -13 -11 -9 -17 4 -6 1 -7 -7 -2 -10 6 -9 11 5 21 10 7
22 15 28 17 6 2 11 12 12 23 1 23 33 74 46 74 5 0 9 -6 9 -14z m25 -15 c3 -5
1 -12 -5 -16 -5 -3 -10 1 -10 9 0 18 6 21 15 7z m65 -1 c0 -5 -7 -10 -15 -10
-8 0 -15 5 -15 10 0 6 7 10 15 10 8 0 15 -4 15 -10z m53 -24 c7 -18 -1 -26
-18 -19 -8 2 -11 11 -8 19 7 18 19 18 26 0z m-289 -4 c3 -5 -1 -9 -9 -9 -8 0
-12 4 -9 9 3 4 7 8 9 8 2 0 6 -4 9 -8z m-34 -9 c0 -5 -4 -14 -9 -21 -7 -11 -9
-11 -14 1 -3 8 -3 18 0 21 9 8 23 7 23 -1z m280 -10 c0 -15 -2 -16 -10 -3 -8
12 -10 12 -10 1 0 -8 -3 -12 -6 -8 -8 7 4 27 17 27 5 0 9 -8 9 -17z m-241 -6
c-2 -1 -13 -9 -24 -17 -19 -14 -19 -14 -6 3 7 9 18 17 24 17 6 0 8 -1 6 -3z
m3 -42 c-5 -28 -10 -30 -32 -14 -12 9 -12 10 4 5 13 -5 17 -2 13 8 -3 8 -1 17
6 20 7 2 13 5 13 5 1 1 -1 -10 -4 -24z m128 11 c0 -2 -8 -10 -17 -17 -16 -13
-17 -12 -4 4 13 16 21 21 21 13z m30 -50 c0 -2 -7 -17 -15 -32 -15 -29 -22
-13 -9 20 5 14 24 23 24 12z m35 -16 c-3 -5 -11 -10 -16 -10 -6 0 -7 5 -4 10
3 6 11 10 16 10 6 0 7 -4 4 -10z m-21 -36 c3 -8 2 -12 -4 -9 -6 3 -10 10 -10
16 0 14 7 11 14 -7z m-35 -48 c0 -6 -3 -5 -6 2 -2 6 -9 10 -14 6 -5 -3 -9 5
-9 18 1 22 1 22 15 4 8 -11 15 -25 14 -30z m-36 -53 c-4 -11 -3 -14 5 -9 14 9
15 -3 2 -24 -8 -13 -11 -13 -26 2 -16 16 -18 16 -30 0 -12 -15 -13 -15 -14 -1
0 17 26 33 40 24 4 -3 10 2 14 10 3 8 8 15 10 15 3 0 2 -7 -1 -17z m-17 -71
c-4 -24 -19 -21 -21 5 -1 13 3 19 11 16 7 -2 11 -12 10 -21z"/>
<path d="M2331 10354 c0 -11 3 -14 6 -6 3 7 2 16 -1 19 -3 4 -6 -2 -5 -13z"/>
<path d="M2465 9750 c3 -5 11 -10 16 -10 6 0 7 5 4 10 -3 6 -11 10 -16 10 -6
0 -7 -4 -4 -10z"/>
<path d="M2958 9303 c6 -9 17 -18 25 -19 13 -2 14 1 4 17 -15 24 -42 26 -29 2z"/>
<path d="M2414 10484 c0 -30 6 -30 27 -1 15 21 15 22 -5 23 -17 1 -22 -4 -22
-22z"/>
<path d="M2178 10254 c-5 -4 -8 -23 -7 -43 0 -34 1 -34 10 -11 11 27 8 66 -3
54z"/>
<path d="M2657 9983 c-4 -6 0 -13 8 -17 8 -3 17 0 21 6 4 6 3 8 -4 4 -5 -3
-12 -1 -14 6 -3 8 -6 9 -11 1z"/>
<path d="M4115 9910 c-8 -12 33 -53 45 -45 15 9 12 18 -15 38 -14 10 -26 13
-30 7z"/>
<path d="M4210 9915 c0 -2 10 -10 23 -16 20 -11 21 -11 8 4 -13 16 -31 23 -31
12z"/>
<path d="M3925 9569 c-14 -5 -16 -8 -5 -9 8 -2 19 -2 23 -1 5 1 6 -3 3 -8 -3
-5 -15 -7 -26 -4 -14 4 -20 0 -20 -12 0 -11 -5 -15 -19 -10 -12 4 -21 0 -25
-11 -9 -23 0 -30 18 -15 8 7 19 10 24 7 5 -3 23 10 41 28 34 35 27 51 -14 35z"/>
<path d="M3059 9190 c-27 -22 -22 -25 15 -10 14 5 26 14 26 20 0 16 -15 12
-41 -10z"/>
<path d="M3306 8923 c-6 -14 -5 -15 5 -6 7 7 10 15 7 18 -3 3 -9 -2 -12 -12z"/>
<path d="M13559 5699 c-204 -30 -373 -182 -444 -400 l-25 -78 0 -832 0 -833
-27 55 c-19 35 -43 64 -71 84 l-44 30 -2801 3 -2802 2 -51 -25 c-100 -49 -145
-157 -112 -269 16 -53 90 -128 143 -143 l40 -12 0 -884 0 -884 -46 -16 c-83
-30 -149 -123 -149 -211 0 -87 77 -193 156 -215 25 -7 184 -11 440 -11 341 0
407 -2 439 -16 49 -20 183 -54 216 -54 29 0 59 27 59 53 0 33 19 16 29 -25 42
-173 120 -344 216 -468 61 -79 188 -198 270 -251 204 -135 403 -194 650 -192
295 2 561 108 774 309 168 157 305 405 337 604 7 44 34 56 34 16 0 -13 7 -29
15 -36 23 -19 125 -6 237 29 l95 31 879 0 c598 0 891 4 918 11 21 6 60 30 86
55 l47 44 11 -25 c19 -42 79 -100 129 -125 l48 -25 1290 -3 c710 -1 1300 0
1313 3 12 3 28 17 34 30 16 36 26 31 38 -17 88 -363 306 -637 632 -793 651
-312 1430 59 1602 763 10 39 21 72 25 72 3 0 14 -14 23 -30 15 -26 23 -30 61
-30 58 0 177 31 268 70 204 86 396 273 489 473 16 34 41 103 56 152 24 83 27
108 31 305 3 156 8 231 20 275 23 85 23 271 -1 350 -24 80 -47 120 -104 184
-47 53 -51 55 -110 59 -53 4 -64 8 -96 41 -28 29 -38 49 -46 96 -27 151 -84
266 -186 375 -191 202 -492 335 -974 429 -217 42 -549 83 -1030 126 -541 49
-816 113 -879 204 -10 15 -86 220 -171 456 -283 797 -303 843 -422 970 -80 86
-156 129 -258 145 -78 12 -1218 12 -1301 -1z m1136 -253 c88 -41 157 -139 204
-291 24 -76 171 -904 171 -960 0 -41 -40 -92 -87 -111 -26 -11 -159 -14 -700
-14 -738 0 -709 -2 -757 63 -21 28 -21 38 -21 545 l0 517 24 60 c31 77 126
175 191 198 38 13 110 16 485 16 l440 1 50 -24z m443 -8 c67 -109 91 -169 252
-618 54 -151 133 -372 175 -490 42 -118 86 -227 96 -241 19 -27 19 -27 -4 -33
-12 -3 -56 -9 -97 -12 -85 -7 -134 9 -149 49 -5 12 -95 311 -200 664 -207 692
-202 666 -143 697 39 22 48 20 70 -16z m-1917 -229 c30 -15 46 -32 60 -64 19
-42 20 -66 17 -389 -3 -330 -4 -346 -24 -372 -28 -38 -64 -62 -97 -66 l-27 -3
0 453 c0 248 0 454 0 457 0 11 33 4 71 -16z m-148 -3232 c-16 -28 -18 -67 -21
-289 l-3 -257 -48 34 c-27 19 -61 38 -77 41 l-29 5 3 877 c1 482 4 882 6 888
2 6 18 14 35 17 41 8 117 80 133 124 11 30 13 -86 16 -686 2 -672 1 -724 -15
-754z m5871 814 c14 -12 16 -51 16 -353 0 -215 -4 -346 -10 -359 -9 -17 -22
-19 -100 -19 -81 0 -90 2 -104 22 -14 19 -16 70 -16 353 0 181 4 335 8 341 17
26 50 34 118 32 41 -2 78 -9 88 -17z m105 -99 c11 -21 25 -66 31 -100 17 -83
8 -301 -14 -362 -16 -43 -51 -90 -68 -90 -4 0 -8 137 -8 305 0 302 0 306 20
295 11 -6 29 -28 39 -48z m-9389 -916 c0 -134 3 -251 6 -260 5 -13 -2 -16 -35
-16 l-41 0 0 260 0 260 35 0 35 0 0 -244z m7420 -16 l0 -260 -40 0 -40 0 0
253 c0 140 3 257 7 260 3 4 21 7 40 7 l33 0 0 -260z m-6792 -124 l20 -33 -216
-124 c-118 -68 -220 -125 -226 -127 -13 -3 -52 61 -39 65 4 2 105 59 223 128
118 68 216 125 217 125 0 0 10 -15 21 -34z m6516 -201 l44 -26 -16 -32 c-9
-18 -18 -33 -18 -35 -1 -3 -433 245 -444 255 -2 2 4 19 14 37 l18 34 179 -104
c99 -57 199 -115 223 -129z m900 204 c10 -17 14 -35 10 -39 -12 -11 -425 -250
-433 -250 -10 0 -43 64 -34 68 4 1 103 59 218 126 116 68 212 124 215 125 3 1
14 -13 24 -30z m-8499 -99 c115 -66 212 -123 216 -127 4 -4 0 -22 -9 -40 l-17
-32 -220 126 c-121 69 -221 127 -223 128 -6 5 28 65 37 65 4 0 102 -54 216
-120z m-378 -302 c-3 -7 -5 -2 -5 12 0 14 2 19 5 13 2 -7 2 -19 0 -25z m1720
-90 c-3 -8 -6 -5 -6 6 -1 11 2 17 5 13 3 -3 4 -12 1 -19z m-1134 -17 c9 -16
17 -31 17 -34 0 -3 -99 -62 -221 -133 -176 -101 -223 -124 -230 -113 -28 42
-31 52 -18 60 73 44 425 248 429 248 3 1 13 -12 23 -28z m679 -97 l218 -127
-20 -31 c-11 -17 -24 -30 -29 -29 -8 2 -131 72 -349 200 l-92 54 22 29 c12 17
24 30 26 30 3 0 103 -57 224 -126z m6741 94 c10 -17 14 -34 10 -38 -12 -10
-431 -250 -437 -250 -9 0 -38 61 -32 67 7 7 430 252 436 252 3 1 13 -13 23
-31z m660 -84 c111 -65 208 -122 215 -129 12 -10 11 -18 -3 -44 l-16 -32 -32
18 c-18 11 -117 68 -222 128 -104 60 -191 109 -193 110 -5 4 33 65 41 65 4 0
98 -52 210 -116z m-7823 -295 l0 -259 -40 0 -40 0 0 259 0 258 40 0 40 0 0
-258z m7420 0 l0 -259 -40 0 -40 0 0 259 0 259 40 0 40 1 0 -260z"/>
<path d="M2360 5030 c-426 -362 -779 -659 -783 -659 -4 -1 -5 20 -2 47 9 68
-10 170 -36 199 -27 28 -60 29 -186 4 l-92 -18 -31 38 c-18 23 -57 51 -97 71
-63 31 -74 33 -168 32 -117 0 -184 -17 -296 -75 -72 -37 -168 -117 -200 -166
-14 -21 -17 -21 -74 -7 -71 16 -168 18 -196 4 -23 -13 -24 -41 -4 -80 13 -26
13 -32 -2 -59 -17 -29 -17 -31 6 -61 l23 -32 -20 -21 c-39 -42 -72 -128 -72
-190 0 -72 18 -115 63 -153 l35 -29 -29 -85 c-15 -47 -36 -130 -45 -185 -10
-55 -23 -107 -31 -116 -18 -22 -18 -313 0 -349 10 -18 10 -39 4 -80 -19 -107
25 -239 118 -360 58 -76 140 -151 348 -324 265 -220 370 -329 457 -475 67
-113 91 -197 97 -341 3 -69 9 -132 14 -141 15 -30 -148 -373 -360 -754 -117
-212 -190 -365 -191 -398 0 -29 50 -72 113 -95 132 -50 405 -71 691 -53 324
20 471 53 511 115 17 26 17 28 -11 67 -51 75 -194 187 -321 254 -29 15 -53 30
-53 34 0 3 20 35 45 70 55 79 70 124 51 160 -15 30 -1 61 117 270 l70 125 26
-55 c99 -211 324 -659 391 -779 44 -80 83 -155 87 -168 29 -113 264 -22 581
225 143 112 333 284 401 362 95 112 115 188 53 212 -49 20 -325 23 -457 5 -67
-9 -134 -18 -150 -22 -28 -5 -31 -3 -48 43 -22 63 -50 94 -88 102 -49 10 -298
367 -425 611 -53 102 -97 190 -97 195 0 6 6 45 12 89 10 69 9 90 -11 187 -19
94 -20 114 -9 144 17 47 7 71 -42 102 -51 32 -73 25 243 84 267 49 275 54 268
124 l-5 43 56 7 c82 9 164 53 268 144 50 44 107 86 126 94 19 8 47 32 63 53
26 34 29 45 29 114 l0 76 420 356 c231 196 512 434 625 530 173 147 205 178
208 203 2 26 -57 100 -494 615 -696 822 -660 780 -692 780 -21 0 -192 -140
-802 -660z m1368 -71 l560 -661 -36 -32 c-20 -18 -275 -235 -567 -481 -291
-247 -558 -473 -592 -502 l-62 -54 -123 -5 c-158 -6 -179 3 -226 99 -32 66
-34 67 -72 67 -22 0 -69 -12 -105 -26 -36 -15 -67 -25 -69 -23 -4 7 -613 726
-718 849 -54 63 -98 117 -97 120 0 6 1532 1308 1540 1309 4 1 259 -296 567
-660z m-2600 -551 c18 -5 46 -21 62 -35 25 -21 30 -32 30 -69 0 -61 -23 -110
-70 -154 -37 -34 -40 -40 -30 -64 24 -63 6 -245 -30 -303 -33 -53 -86 -49
-116 8 -21 41 -128 92 -206 97 -50 4 -59 1 -82 -21 -21 -21 -26 -36 -26 -76 0
-42 4 -53 23 -64 32 -20 113 -40 137 -34 42 11 13 -19 -52 -53 -48 -26 -114
-26 -155 0 l-33 20 0 -71 c0 -81 7 -78 -95 -35 -77 33 -141 33 -218 2 -41 -17
-57 -20 -57 -11 0 7 13 66 30 131 35 141 99 276 165 352 l47 52 25 -20 c28
-22 64 -26 94 -9 28 15 14 30 -17 19 -67 -26 -108 72 -70 165 16 37 50 47 73
24 8 -8 27 -2 70 24 212 127 367 166 501 125z m326 -103 c32 -9 66 -13 75 -10
11 3 25 -5 38 -23 12 -16 152 -183 312 -372 l291 -343 -58 -32 c-40 -22 -76
-34 -122 -38 -60 -6 -134 -24 -440 -106 -314 -83 -479 -82 -655 5 -49 24 -118
50 -152 57 -75 15 -111 44 -105 85 3 27 7 29 52 30 30 0 67 10 97 25 l48 25
33 -29 c20 -18 43 -29 61 -29 38 0 80 43 87 91 5 31 11 39 35 44 92 21 145
143 137 325 -3 86 -3 87 31 125 42 48 61 93 61 145 l0 40 58 0 c32 0 84 -7
116 -15z m-1045 -27 c8 -20 0 -32 -55 -88 -104 -107 -124 -183 -59 -226 23
-15 24 -19 10 -26 -48 -28 -115 32 -115 102 0 72 77 182 170 244 32 21 39 20
49 -6z m-17 -236 c-44 -47 -56 -55 -70 -46 -42 27 -28 74 50 159 l63 69 5 -63
5 -62 -53 -57z m1936 -623 l84 -99 -39 -16 c-21 -9 -86 -38 -145 -64 -60 -27
-110 -45 -112 -42 -14 23 -65 217 -59 223 10 10 176 99 183 98 3 0 42 -45 88
-100z m-1550 -58 c34 -12 92 -40 129 -63 141 -86 280 -139 458 -175 168 -33
539 -21 720 23 18 4 20 0 21 -53 2 -109 82 -253 206 -369 36 -33 80 -66 98
-74 33 -14 32 -14 -81 -37 -286 -58 -360 -67 -524 -67 -182 0 -291 20 -548 98
-328 101 -546 204 -650 308 -35 36 -53 46 -60 39 -14 -14 47 -79 127 -133 79
-54 252 -135 411 -193 127 -46 426 -127 515 -140 l45 -6 -63 -67 c-135 -143
-372 -460 -372 -497 0 -15 39 -22 41 -7 3 29 13 50 59 115 79 115 224 294 303
375 l71 72 85 0 84 0 89 -57 90 -58 -58 -53 c-32 -29 -106 -83 -164 -119 -58
-36 -128 -84 -155 -107 -123 -100 -240 -263 -360 -501 l-71 -140 -2 88 c-3
208 -94 396 -286 596 -50 52 -181 169 -291 261 -291 244 -386 349 -428 474
-21 61 -22 171 -3 228 8 24 20 62 26 86 13 49 66 116 87 108 8 -3 11 -1 8 4
-8 13 51 39 125 57 78 18 240 10 318 -16z m1867 -46 c22 -58 78 -113 123 -121
19 -4 78 -4 130 -1 90 5 96 4 118 -18 50 -50 25 -127 -53 -161 -29 -13 -53
-28 -53 -33 0 -15 -173 -154 -220 -175 -41 -19 -60 -21 -225 -18 -152 3 -183
6 -198 20 -25 22 -102 182 -122 256 -14 49 -15 60 -4 71 22 21 234 135 339
182 125 56 143 56 165 -2z"/>
<path d="M920 4387 c0 -13 45 -138 61 -168 20 -40 72 -89 95 -89 23 0 16 20
-11 30 -32 12 -70 74 -98 160 -12 38 -28 70 -34 70 -7 0 -13 -2 -13 -3z"/>
<path d="M900 4225 c0 -3 9 -23 20 -45 11 -22 20 -44 20 -50 0 -5 -9 -10 -20
-10 -11 0 -20 5 -20 10 0 6 -9 10 -20 10 -12 0 -20 -7 -20 -17 0 -9 3 -13 6
-10 4 3 16 0 27 -8 11 -8 31 -12 43 -9 22 6 43 -16 41 -41 0 -5 7 -11 16 -13
9 -2 17 0 17 5 -1 18 -87 177 -98 181 -7 2 -12 1 -12 -3z"/>
<path d="M530 3369 c0 -5 -6 -7 -12 -3 -8 4 -9 3 -5 -2 5 -5 41 -7 80 -6 40 1
78 -2 86 -7 10 -6 -8 -9 -54 -8 l-68 2 -1 -33 c-1 -19 4 -32 12 -32 6 0 12 -4
12 -10 0 -5 -7 -10 -15 -10 -8 0 -15 5 -15 10 0 6 -7 10 -16 10 -14 0 -14 -3
-4 -16 8 -8 9 -14 4 -13 -21 4 -28 -2 -14 -12 13 -9 12 -10 -2 -5 -24 7 -33
-28 -33 -126 0 -43 -3 -78 -7 -78 -8 0 -5 -21 6 -40 7 -12 6 -13 -5 -2 -7 6
-17 12 -22 12 -4 0 -5 -6 -1 -12 6 -10 4 -10 -8 0 -13 10 -17 10 -21 0 -4 -8
-6 -7 -6 4 -1 11 -6 15 -16 12 -10 -4 -15 0 -15 15 0 12 5 21 11 21 5 0 7 -4
4 -10 -3 -5 -1 -10 4 -10 6 0 11 9 11 21 0 12 -4 17 -11 13 -8 -5 -8 -1 0 14
6 11 11 36 11 54 0 18 4 48 9 66 7 24 7 32 -2 30 -13 -3 -17 3 -17 23 0 8 4 8
14 0 11 -9 16 -6 24 18 7 19 7 33 1 36 -9 6 -13 -8 -10 -34 2 -7 -3 -10 -9 -6
-6 4 -9 13 -6 21 3 7 1 16 -3 19 -5 3 -12 -2 -15 -11 -3 -8 -10 -13 -15 -9 -6
3 -8 12 -5 20 4 8 11 12 16 9 6 -4 8 -1 6 7 -3 8 -14 13 -24 11 -14 -2 -15 0
-6 6 7 5 25 7 39 4 16 -3 24 -1 20 5 -4 5 7 10 25 10 l32 0 -35 -16 c-42 -19
-43 -20 -38 -26 3 -2 24 5 46 16 28 14 40 25 36 35 -6 16 -29 19 -38 4 -4 -6
-11 -8 -16 -4 -15 9 -78 -16 -93 -37 -7 -11 -17 -19 -22 -18 -16 4 -44 -13
-38 -22 3 -5 11 -6 17 -2 7 3 3 -4 -8 -16 -10 -12 -21 -34 -23 -48 -4 -32 -21
-67 -29 -59 -3 3 -1 11 5 18 5 7 13 28 15 47 3 19 12 38 19 42 9 6 9 9 1 9
-17 0 -24 -15 -50 -95 -37 -117 -43 -248 -10 -228 8 4 8 1 -1 -10 -8 -9 -11
-25 -7 -36 5 -17 9 -19 25 -8 15 9 22 9 31 0 9 -9 7 -11 -8 -7 -23 6 -41 -25
-23 -36 6 -4 12 -13 13 -21 4 -25 71 -119 78 -108 4 6 9 3 13 -8 4 -10 6 -18
4 -19 -2 0 3 -8 11 -17 7 -9 17 -14 22 -11 5 3 9 -1 9 -8 0 -14 26 -41 45 -47
6 -2 9 -8 7 -13 -2 -6 4 -8 13 -5 9 4 15 1 15 -8 0 -9 10 -13 32 -12 26 2 33
-2 35 -18 2 -15 1 -16 -5 -5 -4 8 -16 16 -27 17 -20 1 -20 1 -1 -13 11 -8 16
-14 12 -14 -21 0 44 -39 70 -43 21 -3 29 -9 29 -24 0 -18 53 -73 70 -73 4 0
21 -16 38 -35 24 -27 33 -32 44 -23 11 9 12 7 6 -8 -6 -17 -5 -17 11 -5 15 12
19 12 34 -4 16 -16 16 -17 -4 -7 -16 9 -21 8 -21 -3 0 -17 24 -28 32 -15 4 6
10 10 16 10 5 0 4 -9 -3 -19 -10 -17 -8 -23 13 -40 13 -11 30 -20 36 -21 7 0
12 -4 10 -9 -2 -8 3 -11 19 -11 4 0 2 6 -4 13 -7 8 -7 18 -2 27 8 13 10 12 10
-2 0 -10 5 -18 11 -18 5 0 8 4 4 9 -3 5 -2 12 3 15 4 2 8 -6 8 -19 0 -13 -3
-22 -7 -19 -4 2 -10 -3 -13 -12 -8 -22 -8 -26 4 -19 5 3 10 -1 10 -9 0 -8 5
-18 12 -22 6 -4 8 -3 5 3 -4 6 0 14 9 17 8 3 13 2 10 -3 -3 -5 1 -12 10 -15
21 -8 26 -8 20 2 -3 5 1 9 9 9 10 0 12 -4 5 -12 -5 -7 -6 -15 -2 -20 4 -4 -4
-2 -17 5 -13 6 -27 8 -31 3 -11 -10 73 -100 97 -105 13 -3 17 -11 15 -31 -1
-15 1 -27 5 -27 4 0 17 -18 27 -40 20 -41 36 -52 36 -24 0 8 -4 13 -8 10 -4
-2 -9 6 -10 19 -1 13 2 26 7 29 11 7 22 -63 14 -93 -4 -18 -3 -22 6 -17 8 5
12 3 10 -5 -3 -28 1 -40 13 -33 8 5 9 2 5 -9 -10 -26 3 -48 23 -42 10 3 21 1
25 -5 11 -17 -5 -26 -16 -10 -7 11 -8 6 -3 -15 4 -24 3 -27 -6 -15 -10 13 -11
12 -5 -5 3 -11 11 -58 17 -104 l11 -84 29 62 c15 33 29 64 29 68 0 5 6 15 13
23 8 8 12 26 11 40 -3 29 11 51 28 45 7 -2 22 11 34 30 16 26 18 35 8 39 -10
3 -12 0 -8 -12 4 -13 2 -13 -11 3 -10 11 -15 14 -11 8 3 -7 2 -13 -3 -13 -16
0 -21 12 -9 25 9 9 17 10 31 3 12 -7 22 -6 29 1 8 8 6 11 -6 11 -9 0 -17 5
-17 11 0 6 -7 9 -15 5 -8 -3 -15 -1 -15 4 0 6 5 10 11 10 6 0 8 7 5 16 -5 13
-3 14 6 6 7 -5 24 -12 38 -15 23 -4 23 -4 -4 -6 -22 -1 -27 -4 -19 -12 8 -8
17 -8 32 0 28 15 27 41 -1 41 -23 0 -23 1 2 13 14 8 23 20 22 28 -11 42 -10
49 6 49 12 0 13 -3 4 -12 -8 -8 -8 -17 0 -31 7 -15 7 -22 -3 -28 -7 -4 -10
-11 -6 -15 6 -7 70 60 73 76 3 17 17 39 23 35 4 -2 8 2 8 10 0 19 -16 19 -23
0 -5 -13 -8 -12 -22 1 -15 15 -14 18 3 30 10 8 23 14 29 14 5 0 1 -6 -10 -14
-17 -13 -16 -14 19 -11 42 4 70 22 60 38 -3 5 -1 7 5 3 6 -3 13 -2 17 4 3 5
-3 10 -14 10 -13 0 -19 6 -18 19 0 11 5 17 9 15 5 -3 6 -9 3 -14 -5 -8 36 -22
44 -15 2 3 -4 12 -15 19 -10 8 -16 18 -11 22 4 4 7 2 7 -4 0 -7 5 -12 11 -12
5 0 7 5 3 12 -4 7 -3 8 5 4 6 -4 9 -12 6 -17 -4 -5 1 -9 9 -9 9 0 16 5 16 12
0 6 7 20 16 30 13 13 14 21 5 31 -9 11 -8 17 3 26 16 14 48 4 40 -13 -3 -6 2
-2 11 9 l17 20 -4 -20 c-2 -12 -11 -20 -23 -20 -11 0 -19 6 -17 13 2 14 -14
17 -22 3 -3 -5 1 -14 9 -21 13 -10 12 -15 -8 -32 -25 -23 -6 -14 38 16 17 12
32 21 35 21 10 1 65 40 73 52 4 7 14 13 21 13 7 0 39 25 72 56 32 30 54 53 48
50 -7 -3 -15 1 -18 10 -6 16 -26 11 -26 -7 0 -6 4 -8 9 -4 5 3 13 0 17 -6 5
-9 0 -10 -14 -7 -12 4 -20 3 -18 0 2 -4 -3 -14 -12 -22 -14 -13 -15 -12 -10 2
9 22 -26 52 -52 45 -18 -5 -19 -3 -8 11 11 13 11 15 -3 10 -9 -4 -22 -1 -28 5
-7 7 -16 13 -21 13 -6 1 -13 2 -16 3 -4 0 -1 8 6 16 15 18 5 23 -62 29 -38 3
-48 1 -48 -11 0 -10 -6 -14 -20 -10 -11 3 -18 1 -14 -4 3 -5 -1 -9 -9 -9 -8 0
-31 -19 -51 -42 -31 -37 -34 -45 -21 -54 8 -6 15 -22 14 -35 l-1 -24 -7 25
c-6 22 -8 23 -14 7 -4 -10 -12 -15 -17 -12 -8 5 -7 12 2 23 6 10 -5 1 -26 -18
-53 -49 -99 -117 -83 -123 6 -3 3 -6 -8 -7 l-20 -1 20 -10 c18 -8 17 -9 -6 -6
-23 3 -51 -19 -54 -43 0 -3 -13 -18 -28 -34 -15 -16 -27 -35 -27 -42 0 -8 -5
-14 -10 -14 -15 0 -34 -54 -21 -58 20 -7 11 -24 -9 -19 -11 3 -18 1 -15 -4 10
-15 -35 -51 -57 -46 -14 4 -18 1 -14 -8 2 -7 -1 -16 -9 -19 -9 -3 -12 0 -8 10
3 8 -1 22 -8 32 -13 15 -12 16 4 3 15 -12 17 -11 17 10 0 13 7 33 15 43 16 21
19 37 8 34 -17 -3 -43 15 -43 31 0 24 37 44 58 31 15 -9 14 -10 -5 -5 -20 5
-21 4 -10 -19 13 -28 30 -36 20 -11 -3 10 0 15 8 13 7 -2 18 7 24 20 5 12 14
22 19 22 4 0 3 6 -3 14 -9 11 -9 14 2 12 16 -1 87 87 92 115 2 11 0 17 -6 14
-5 -4 -9 -14 -9 -24 0 -10 -9 -21 -20 -24 -24 -6 -25 1 -4 24 8 9 17 34 20 55
3 25 1 34 -5 25 -6 -9 -11 -10 -15 -2 -4 6 -6 12 -4 12 9 4 67 5 63 1 -3 -3 3
-11 13 -19 16 -12 16 -13 -2 -6 -16 5 -18 3 -13 -11 4 -11 3 -15 -4 -11 -6 4
-8 13 -5 21 3 7 1 16 -4 19 -6 4 -10 2 -10 -4 0 -5 -3 -18 -7 -28 -3 -10 -3
-15 2 -11 4 4 14 3 21 -3 21 -17 66 39 52 66 -8 16 -8 17 2 9 19 -18 51 16 33
34 -21 21 -15 31 16 27 24 -3 37 5 77 47 33 35 42 49 28 46 -10 -2 -19 -9 -19
-16 0 -7 -13 -19 -29 -27 -34 -18 -33 -18 -33 0 0 8 4 12 8 9 4 -2 10 0 14 6
3 5 1 10 -5 10 -6 0 -8 5 -4 12 5 8 11 6 19 -5 16 -22 21 -21 21 3 0 12 -5 19
-13 16 -7 -3 -15 -1 -18 4 -4 6 -17 10 -31 10 -14 0 -46 6 -72 14 -60 18 -161
46 -187 52 -14 4 -16 3 -7 -4 9 -6 3 -9 -18 -9 -16 0 -30 4 -30 9 0 5 5 6 10
3 6 -3 10 -1 10 4 0 6 -6 12 -12 12 -22 2 -32 5 -51 13 -12 6 -23 4 -30 -4 -9
-10 -9 -11 0 -6 20 11 72 -22 73 -46 0 -5 -4 -8 -10 -8 -5 0 -10 6 -10 14 0
23 -17 28 -35 9 -10 -10 -19 -12 -23 -6 -4 5 -23 9 -43 8 -36 -1 -36 -1 -35
37 2 30 -3 42 -17 50 -15 8 -18 7 -12 -4 3 -7 0 -5 -8 5 -18 21 -31 22 -23 1
3 -8 2 -12 -4 -9 -6 3 -10 12 -10 19 0 8 -8 16 -17 20 -10 3 -28 10 -40 16
-13 5 -23 7 -23 4 0 -2 10 -9 23 -14 14 -5 16 -9 6 -9 -8 -1 -25 11 -38 25
-13 15 -28 23 -37 20 -9 -3 -12 -1 -9 4 3 6 1 10 -5 10 -6 0 -15 -10 -20 -22
-5 -13 -9 -17 -9 -10 -1 7 -5 10 -11 7 -5 -3 -10 -1 -10 4 0 6 -4 11 -10 11
-5 0 -6 -8 -3 -17 6 -15 5 -16 -9 -3 -22 21 -17 24 47 29 5 1 -1 8 -13 17 -22
15 -25 15 -46 -5 l-22 -21 0 24 c0 14 4 22 8 20 4 -3 8 -1 8 4 0 5 -14 15 -30
22 -23 9 -33 10 -44 1 -10 -9 -15 -8 -19 4 -5 12 -12 13 -33 5 -15 -6 -29 -8
-32 -5 -3 3 0 5 6 5 7 0 12 7 12 15 0 8 -6 12 -14 9 -8 -3 -17 -1 -21 5 -4 7
1 8 12 4 17 -6 17 -6 0 14 -14 16 -15 22 -5 26 9 3 5 13 -14 34 -31 32 -35 52
-15 72 10 10 9 12 -3 11 -27 -4 -40 0 -40 11 0 6 9 8 23 3 12 -4 27 -7 34 -7
7 0 11 -3 9 -6 -1 -3 8 -17 21 -30 13 -13 23 -19 23 -12 0 7 4 10 9 7 5 -3 7
-14 5 -24 -3 -11 6 -23 28 -36 18 -11 36 -19 41 -18 4 1 7 -2 7 -8 0 -5 9 -14
21 -20 16 -9 26 -8 47 6 15 9 22 11 16 4 -18 -19 -6 -44 29 -60 18 -8 38 -15
46 -16 8 -2 27 -12 43 -24 16 -11 32 -19 36 -16 5 3 23 -4 41 -15 44 -27 53
-16 10 12 -19 11 -25 18 -15 15 11 -4 26 0 36 9 16 14 18 14 22 -3 4 -16 1
-19 -16 -15 -20 4 -20 4 -3 -10 9 -8 17 -19 17 -25 0 -7 12 -15 28 -18 15 -4
36 -12 47 -18 11 -6 27 -12 35 -13 8 -1 49 -13 90 -28 44 -15 76 -21 78 -15 2
5 8 10 13 10 6 0 7 -5 3 -11 -4 -7 -1 -10 7 -7 8 3 19 -1 26 -8 15 -15 150
-47 164 -39 5 4 9 1 9 -4 0 -6 9 -11 20 -11 25 0 25 9 3 26 -10 7 -15 16 -11
20 4 4 14 1 22 -5 11 -10 17 -8 25 6 9 16 10 16 11 1 0 -9 -4 -20 -10 -23 -5
-3 -10 -13 -10 -22 0 -11 7 -14 25 -11 14 3 25 1 25 -3 0 -5 15 -9 33 -9 24 0
28 3 17 10 -24 15 -2 12 31 -5 19 -10 52 -15 94 -14 57 2 63 4 53 17 -11 13
-10 14 9 4 27 -15 36 -15 28 -2 -3 6 -1 10 4 10 6 0 11 -5 11 -10 0 -13 105
-5 197 14 34 8 65 11 69 7 4 -3 4 0 -1 8 -6 10 -2 12 13 7 12 -4 40 -2 64 5
24 6 48 12 55 12 7 0 10 3 8 7 -3 4 5 16 17 26 21 19 21 19 9 -3 -11 -21 -9
-23 12 -23 36 0 38 10 9 35 l-27 23 -13 -24 c-7 -13 -18 -24 -24 -24 -7 0 -7
4 1 14 7 8 8 17 3 20 -13 8 -22 -4 -22 -26 0 -11 -4 -16 -10 -13 -5 3 -10 1
-10 -5 0 -6 -4 -9 -9 -5 -5 3 -12 1 -16 -5 -3 -5 -13 -10 -21 -10 -9 0 -12 5
-8 11 4 8 0 9 -15 4 -11 -3 -21 -2 -21 3 0 5 -13 7 -30 4 -22 -3 -30 0 -30 11
0 8 -7 17 -15 21 -8 3 -15 10 -15 16 0 6 7 4 16 -4 8 -9 20 -16 25 -16 6 0 7
-4 4 -10 -3 -5 2 -10 12 -10 14 0 9 8 -19 34 -21 18 -35 36 -32 39 3 3 -4 8
-15 12 -13 4 -18 11 -14 22 5 13 3 13 -16 2 -11 -8 -21 -19 -21 -26 0 -7 -4
-13 -8 -13 -5 0 -9 27 -8 60 0 33 3 55 7 49 10 -16 20 5 13 28 -3 10 -8 25
-11 33 -12 37 -13 182 -2 196 9 11 7 16 -12 23 -15 6 -18 10 -8 10 9 1 25 -7
37 -16 11 -10 29 -24 39 -31 10 -7 12 -10 6 -7 -10 5 -13 -7 -13 -41 0 -41 2
-46 20 -41 11 3 17 1 14 -4 -3 -6 0 -18 8 -27 11 -15 11 -15 -2 -5 -30 23 -38
2 -23 -56 19 -76 26 -80 38 -26 4 20 4 26 -3 16 -6 -8 -12 -9 -16 -3 -3 6 -2
13 4 17 6 4 8 9 6 13 -2 4 2 13 10 20 15 13 19 6 15 -25 -2 -14 11 -17 22 -7
8 8 -14 54 -25 54 -5 0 -7 4 -4 9 3 5 -4 21 -15 35 -12 15 -19 30 -15 33 3 4
6 0 6 -7 0 -7 2 -11 5 -8 10 10 -7 38 -19 31 -7 -5 -7 -2 1 8 7 9 8 20 3 29
-5 8 -7 17 -4 21 2 4 -7 6 -21 4 -14 -1 -25 2 -25 6 0 9 15 13 38 10 6 -1 12
3 12 8 0 5 -10 7 -22 4 -21 -5 -37 -6 -126 -11 -18 -1 -31 -6 -28 -10 5 -9 -7
-10 -255 -10 -125 -1 -208 4 -255 14 -38 7 -81 14 -96 14 -14 0 -48 9 -74 21
l-48 20 19 -20 c10 -12 14 -21 9 -21 -5 0 -16 9 -24 20 -8 11 -20 20 -28 20
-7 0 -24 7 -37 16 -13 9 -28 13 -34 10 -5 -3 -12 0 -14 6 -4 10 -6 10 -6 1 -1
-7 -6 -13 -12 -13 -5 0 -8 4 -5 9 7 11 -37 41 -59 41 -9 0 -26 -5 -38 -12 -52
-28 -96 -9 -77 33 10 24 10 23 7 -4 -4 -23 -2 -25 11 -15 13 10 14 10 8 1 -10
-18 0 -16 31 5 15 9 24 11 20 5 -5 -7 -4 -13 2 -13 5 0 12 4 16 9 6 11 -25 23
-46 18 -8 -2 -11 -2 -6 0 14 9 7 22 -10 16 -12 -5 -14 -3 -8 7 5 9 4 11 -3 6
-7 -4 -12 -2 -12 4 0 16 -106 61 -126 53 -10 -4 -15 -2 -11 4 3 5 -4 9 -16 8
-12 -1 -21 -6 -19 -11 2 -5 11 -8 20 -7 10 1 11 0 5 -3 -7 -3 -13 -12 -13 -20
0 -8 -8 -14 -17 -14 -14 0 -15 2 -4 9 9 6 10 14 5 22 -5 8 -9 18 -9 24 0 5
-18 13 -40 17 -61 11 -135 9 -135 -3z m246 -44 c-15 -11 -16 -15 -5 -15 8 0
21 6 28 13 10 10 11 9 6 -5 -7 -18 -35 -24 -48 -11 -9 8 12 33 27 33 6 0 2 -7
-8 -15z m-85 -8 c-7 -7 -18 -7 -33 0 -22 10 -21 11 10 10 22 0 30 -3 23 -10z
m169 -33 c0 -8 -4 -14 -9 -14 -6 0 -9 9 -8 19 1 22 17 18 17 -5z m-302 -69
c-3 -3 -9 2 -12 12 -6 14 -5 15 5 6 7 -7 10 -15 7 -18z m-246 -16 c-3 -19 -7
-26 -12 -19 -8 14 -2 50 9 50 4 0 5 -14 3 -31z m208 11 c0 -5 -4 -10 -10 -10
-5 0 -10 5 -10 10 0 6 5 10 10 10 6 0 10 -4 10 -10z m17 -27 c-3 -10 -5 -4 -5
12 0 17 2 24 5 18 2 -7 2 -21 0 -30z m283 17 c0 -5 -2 -10 -4 -10 -3 0 -8 5
-11 10 -3 6 -1 10 4 10 6 0 11 -4 11 -10z m-413 -22 c-3 -8 -6 -5 -6 6 -1 11
2 17 5 13 3 -3 4 -12 1 -19z m576 7 c-3 -9 -8 -14 -10 -11 -3 3 -2 9 2 15 9
16 15 13 8 -4z m83 -31 c-11 -8 -27 -13 -35 -13 -12 1 -12 2 2 6 9 2 14 9 10
15 -4 7 0 9 10 5 10 -4 17 -1 17 5 0 6 3 8 7 4 5 -4 -1 -14 -11 -22z m-532 1
c16 -12 17 -15 4 -15 -9 0 -19 6 -21 13 -4 9 -8 8 -16 -3 -6 -8 -11 -10 -11
-4 0 26 17 29 44 9z m600 6 c6 -10 -24 -25 -32 -16 -3 3 1 5 9 6 8 0 6 4 -6 9
-19 8 -19 9 2 9 12 1 24 -3 27 -8z m-834 -5 c0 -3 -4 -8 -10 -11 -5 -3 -10 -1
-10 4 0 6 5 11 10 11 6 0 10 -2 10 -4z m595 -6 c4 -6 -5 -10 -19 -10 -14 0
-26 5 -26 10 0 6 9 10 19 10 11 0 23 -4 26 -10z m-488 -15 c0 -8 -4 -15 -9
-15 -10 0 -11 14 -1 23 9 10 10 9 10 -8z m903 -29 c0 -9 -39 -13 -51 -5 -10 6
-4 9 19 9 17 0 32 -2 32 -4z m71 -14 c-7 -2 -18 1 -23 6 -8 8 -4 9 13 5 13 -4
18 -8 10 -11z m-51 -2 c-12 -8 -10 -10 10 -11 14 -1 39 -2 55 -1 l30 1 -27 -8
c-35 -11 -123 8 -92 20 27 11 42 10 24 -1z m655 0 l20 -9 -20 0 c-11 0 -27 4
-35 9 -13 9 -13 10 0 9 8 0 24 -4 35 -9z m-730 -10 c3 -5 1 -10 -4 -10 -6 0
-11 5 -11 10 0 6 2 10 4 10 3 0 8 -4 11 -10z m202 4 c-3 -3 -12 -4 -19 -1 -8
3 -5 6 6 6 11 1 17 -2 13 -5z m440 0 c-3 -3 -12 -4 -19 -1 -8 3 -5 6 6 6 11 1
17 -2 13 -5z m178 -4 c3 -6 -1 -7 -9 -4 -18 7 -21 14 -7 14 6 0 13 -4 16 -10z
m-585 -10 c-8 -5 -19 -10 -25 -10 -5 0 -3 5 5 10 8 5 20 10 25 10 6 0 3 -5 -5
-10z m205 -1 c3 -3 -34 -6 -80 -5 -47 1 -85 5 -85 9 0 10 159 6 165 -4z m90 1
c3 -6 -1 -7 -9 -4 -18 7 -21 14 -7 14 6 0 13 -4 16 -10z m75 6 c0 -2 -7 -7
-16 -10 -8 -3 -12 -2 -9 4 6 10 25 14 25 6z m-1630 -86 c-10 -23 -10 -22 -5 9
3 18 6 43 7 55 1 12 3 9 5 -9 2 -17 -1 -42 -7 -55z m1080 76 c0 -3 -4 -8 -10
-11 -5 -3 -10 -1 -10 4 0 6 5 11 10 11 6 0 10 -2 10 -4z m427 -2 c-3 -3 -12
-4 -19 -1 -8 3 -5 6 6 6 11 1 17 -2 13 -5z m-1127 -16 c0 -4 8 -5 18 -2 13 4
13 3 -2 -7 -13 -8 -21 -8 -23 -2 -2 5 -21 8 -43 6 -22 -2 -40 0 -40 4 0 5 20
9 45 9 25 0 45 -4 45 -8z m14 -27 c21 10 21 10 1 -6 -22 -17 -37 -16 -43 6 -4
11 -2 11 8 2 9 -9 19 -9 34 -2z m-109 -43 c0 -26 -12 -48 -26 -48 -5 0 -9 5
-9 11 0 5 5 7 11 4 6 -4 10 -1 8 6 -3 26 1 49 9 49 4 0 8 -10 7 -22z m1465 12
c0 -5 -4 -10 -10 -10 -5 0 -10 5 -10 10 0 6 5 10 10 10 6 0 10 -4 10 -10z
m-1292 -30 c-13 -21 -43 -27 -52 -11 -4 5 3 7 14 4 12 -3 22 1 26 11 3 9 10
16 15 16 5 0 4 -9 -3 -20z m-156 -22 c-16 -16 -15 -25 3 -25 8 0 15 4 15 9 0
5 5 6 11 3 16 -11 1 -19 -37 -20 l-34 -2 22 24 c12 13 24 23 27 23 3 0 0 -5
-7 -12z m182 3 c3 -5 -3 -11 -15 -14 -16 -4 -18 -3 -8 9 13 16 16 17 23 5z
m86 -7 c0 -2 -7 -4 -15 -4 -8 0 -15 4 -15 10 0 5 7 7 15 4 8 -4 15 -8 15 -10z
m1287 -36 c-3 -7 -5 -2 -5 12 0 14 2 19 5 13 2 -7 2 -19 0 -25z m-1222 -7 c-3
-5 -1 -12 5 -16 5 -3 10 -11 10 -17 0 -6 -8 -4 -18 5 -10 10 -27 18 -38 18
-12 1 -7 4 11 9 17 4 31 8 33 9 2 0 1 -3 -3 -8z m-595 -31 c0 -5 -2 -10 -4
-10 -3 0 -8 5 -11 10 -3 6 -1 10 4 10 6 0 11 -4 11 -10z m45 -1 c11 -17 -1
-21 -15 -4 -8 9 -8 15 -2 15 6 0 14 -5 17 -11z m203 -7 c6 -18 -15 -14 -22 4
-4 10 -1 14 6 12 6 -2 14 -10 16 -16z m330 -12 c4 -12 2 -13 -9 -4 -8 7 -23
14 -34 17 -13 4 -9 5 9 4 16 -1 32 -9 34 -17z m-531 -37 c-4 -3 -7 0 -8 8 0 9
-3 7 -8 -4 -7 -18 -8 -18 -21 -1 -9 11 -10 15 -2 10 6 -4 12 -2 12 3 0 6 -5
11 -11 11 -5 0 -7 4 -4 10 4 6 15 2 27 -10 12 -11 18 -23 15 -27z m1653 8
c-11 -22 -30 -28 -30 -11 0 6 7 13 15 16 8 4 15 14 16 23 0 9 3 11 5 4 3 -7 0
-21 -6 -32z m-1405 19 c-3 -5 -12 -10 -18 -10 -7 0 -6 4 3 10 19 12 23 12 15
0z m-130 -20 c3 -5 -1 -10 -10 -10 -9 0 -13 5 -10 10 3 6 8 10 10 10 2 0 7 -4
10 -10z m479 -2 c-3 -4 -11 -5 -19 -1 -21 7 -19 12 4 10 11 0 18 -5 15 -9z
m39 -7 c-9 -11 -21 -17 -26 -14 -6 3 -2 12 8 20 27 19 37 16 18 -6z m-636 -33
c2 -17 0 -19 -7 -8 -5 8 -6 18 -4 22 8 12 10 10 11 -14z m72 -59 c-11 -7 -11
-9 -1 -9 8 0 12 -5 10 -11 -2 -6 -7 -10 -11 -10 -4 1 -6 2 -5 4 1 1 -4 12 -10
24 -7 12 -9 29 -6 38 6 14 9 13 22 -6 12 -18 13 -23 1 -30z m266 41 c3 -5 1
-10 -4 -10 -6 0 -11 5 -11 10 0 6 2 10 4 10 3 0 8 -4 11 -10z m485 -10 c0 -5
-8 -10 -17 -11 -10 0 -13 -3 -6 -5 7 -3 21 0 32 6 24 13 81 2 59 -11 -18 -12
-31 -11 -23 1 3 6 -1 10 -10 10 -9 0 -14 -4 -11 -9 12 -19 -42 -17 -65 2 -14
10 -17 17 -8 14 9 -3 22 -1 30 4 18 11 19 11 19 -1z m115 -30 c-16 -11 -37
-20 -45 -20 -8 0 1 9 20 19 46 26 63 26 25 1z m-587 -2 c-2 -6 -10 -14 -16
-16 -7 -2 -10 2 -6 12 7 18 28 22 22 4z m202 -18 c0 -5 -11 -10 -25 -10 -14 0
-25 5 -25 10 0 6 11 10 25 10 14 0 25 -4 25 -10z m1193 3 c-7 -2 -19 -2 -25 0
-7 3 -2 5 12 5 14 0 19 -2 13 -5z m-1148 -13 c-8 -13 1 -13 26 0 12 7 19 7 19
1 0 -12 -37 -24 -50 -16 -13 8 -13 25 1 25 5 0 7 -4 4 -10z m-155 -10 c0 -5
-9 -10 -20 -10 -11 0 -20 5 -20 10 0 6 9 10 20 10 11 0 20 -4 20 -10z m1312
-7 c10 -9 18 -20 18 -25 0 -16 -18 -8 -34 17 -19 29 -11 33 16 8z m-1625 -18
c0 -8 -4 -12 -9 -9 -5 3 -6 10 -3 15 9 13 12 11 12 -6z m26 -4 c-3 -13 1 -21
14 -24 15 -4 15 -5 1 -6 -20 -1 -32 15 -24 34 8 22 15 18 9 -4z m1003 -12 c14
-1 13 -3 -6 -8 -32 -10 -58 -2 -38 10 10 7 10 9 1 9 -7 0 -13 5 -13 12 0 6 7
4 18 -5 10 -10 27 -17 38 -18z m14 21 c13 -8 13 -10 -2 -10 -9 0 -20 5 -23 10
-8 13 5 13 25 0z m270 0 c0 -5 -4 -10 -10 -10 -5 0 -10 5 -10 10 0 6 5 10 10
10 6 0 10 -4 10 -10z m-350 -20 c0 -5 -2 -10 -4 -10 -3 0 -8 5 -11 10 -3 6 -1
10 4 10 6 0 11 -4 11 -10z m-820 -20 c14 -10 22 -22 18 -25 -8 -8 -68 25 -68
37 0 14 24 8 50 -12z m1106 -7 c-10 -10 -19 5 -10 18 6 11 8 11 12 0 2 -7 1
-15 -2 -18z m264 13 c0 -2 -7 -7 -16 -10 -8 -3 -12 -2 -9 4 6 10 25 14 25 6z
m200 -10 c-7 -7 -14 -6 -21 1 -9 9 -7 12 9 10 14 -1 18 -5 12 -11z m-55 -6
c-3 -5 -11 -10 -16 -10 -6 0 -7 5 -4 10 3 6 11 10 16 10 6 0 7 -4 4 -10z m-65
-10 c0 -5 -5 -10 -11 -10 -5 0 -7 5 -4 10 3 6 8 10 11 10 2 0 4 -4 4 -10z
m-300 -15 c0 -9 -6 -12 -16 -8 -13 5 -13 7 -2 14 17 11 18 11 18 -6z m77 -11
c-3 -3 -12 -4 -19 -1 -8 3 -5 6 6 6 11 1 17 -2 13 -5z m-1232 -24 c3 -5 1 -10
-4 -10 -6 0 -11 5 -11 10 0 6 2 10 4 10 3 0 8 -4 11 -10z m788 3 c-7 -2 -21
-2 -30 0 -10 3 -4 5 12 5 17 0 24 -2 18 -5z m103 -30 c-1 -1 -20 -5 -42 -8
-32 -4 -35 -3 -16 5 13 5 21 14 18 19 -3 5 5 4 18 -2 14 -7 23 -13 22 -14z
m-68 10 c-10 -3 -18 -9 -18 -14 0 -5 -5 -9 -11 -9 -5 0 -7 5 -4 10 3 6 1 10
-4 10 -6 0 -11 -4 -11 -9 0 -4 -11 -6 -25 -3 -47 8 -33 17 29 18 33 0 53 -1
44 -3z m102 -10 c0 -14 -19 -38 -25 -32 -8 8 5 39 16 39 5 0 9 -3 9 -7z m-810
-33 c0 -6 -11 -8 -27 -4 -40 10 -41 14 -5 14 18 0 32 -5 32 -10z m1037 -22
c-3 -8 -6 -5 -6 6 -1 11 2 17 5 13 3 -3 4 -12 1 -19z m-1049 -18 c4 -12 2 -13
-9 -4 -8 7 -23 14 -34 17 -13 4 -9 5 9 4 16 -1 32 -9 34 -17z m857 0 c-10 -11
-21 -18 -23 -15 -3 3 3 12 14 20 27 20 30 18 9 -5z m132 -7 c0 -9 -4 -10 -14
-2 -7 6 -13 12 -13 14 0 1 6 2 13 2 8 0 14 -6 14 -14z m-960 -7 c-4 -9 1 -17
11 -19 16 -4 16 -5 0 -6 -19 -1 -32 14 -23 29 9 15 18 12 12 -4z m1023 -1 c0
-8 -4 -15 -10 -15 -5 0 -10 7 -10 15 0 8 5 15 10 15 6 0 10 -7 10 -15z m-940
-49 c0 -18 -1 -18 -20 -1 -16 14 -17 21 -8 32 9 11 13 11 19 1 5 -7 9 -22 9
-32z m669 17 c6 -12 7 -24 3 -27 -5 -3 -9 0 -9 7 0 7 -4 21 -8 32 -10 25 -2
18 14 -12z m311 17 c0 -5 -4 -10 -10 -10 -5 0 -10 5 -10 10 0 6 5 10 10 10 6
0 10 -4 10 -10z m-1024 -34 c10 -8 17 -17 14 -19 -3 -3 -16 3 -29 14 -27 22
-15 26 15 5z m934 -6 c0 -5 -7 -10 -15 -10 -8 0 -15 5 -15 10 0 6 7 10 15 10
8 0 15 -4 15 -10z m245 -35 c-25 -22 -43 -31 -49 -25 -12 12 -29 13 -22 2 2
-4 2 -13 -2 -19 -5 -7 -18 -1 -39 17 -28 25 -30 30 -16 41 12 11 14 10 11 -7
-2 -14 4 -20 21 -22 16 -3 21 0 16 9 -6 8 -4 10 4 5 7 -5 21 0 31 9 15 14 23
15 33 6 11 -9 17 -8 27 4 7 8 15 15 19 15 3 -1 -12 -16 -34 -35z m-1075 -7 c0
-9 3 -9 9 1 7 10 9 2 6 -25 -4 -48 -3 -46 -15 -39 -8 5 -7 12 2 22 10 12 9 17
-5 28 -19 14 -22 25 -7 25 6 0 10 -6 10 -12z m70 8 c0 -3 -4 -8 -10 -11 -5 -3
-10 -1 -10 4 0 6 5 11 10 11 6 0 10 -2 10 -4z m619 -39 c-9 -7 -18 -19 -22
-27 -4 -11 -6 -9 -6 6 -1 25 7 34 28 34 15 -1 15 -2 0 -13z m46 -17 c3 -5 2
-10 -4 -10 -5 0 -18 -3 -28 -7 -16 -6 -16 -5 -4 10 15 19 27 22 36 7z m-260
-19 c-3 -6 -11 -11 -16 -11 -5 0 -4 6 3 14 14 16 24 13 13 -3z m167 -8 c-5
-30 -32 -76 -32 -56 0 7 5 15 10 18 6 3 10 16 10 29 0 19 7 36 15 36 1 0 0
-12 -3 -27z m313 17 c3 -6 -2 -18 -11 -28 -16 -15 -17 -15 -12 -1 4 9 1 22 -5
28 -8 8 -7 11 5 11 9 0 20 -5 23 -10z m-905 -14 c0 -3 -4 -8 -10 -11 -5 -3
-10 -1 -10 4 0 6 5 11 10 11 6 0 10 -2 10 -4z m612 -44 c-7 -2 -12 -8 -12 -13
0 -6 5 -7 12 -3 7 4 8 3 4 -5 -4 -6 -12 -9 -17 -6 -5 4 -9 0 -9 -8 0 -8 -7
-20 -15 -27 -13 -10 -15 -9 -15 9 0 11 5 21 10 21 6 0 15 11 22 25 6 13 16 21
21 18 8 -5 7 -8 -1 -11z m169 -15 c-10 -9 -11 -8 -5 6 3 10 9 15 12 12 3 -3 0
-11 -7 -18z m-369 -29 c-15 -15 -24 -6 -16 16 5 12 10 14 17 7 8 -8 8 -14 -1
-23z m-142 4 c0 -13 -12 -22 -22 -16 -10 6 -1 24 13 24 5 0 9 -4 9 -8z m233
-19 c-5 -12 -3 -14 7 -8 9 6 11 4 5 -4 -5 -9 -11 -9 -17 -3 -6 6 -7 15 -4 21
11 17 16 13 9 -6z m157 -28 c-14 -17 -30 -20 -30 -4 0 5 4 8 9 4 5 -3 12 -1
16 5 3 5 1 10 -5 10 -6 0 -8 5 -4 11 4 7 9 8 17 0 7 -7 6 -15 -3 -26z m-489
-4 c-12 -12 -21 -18 -21 -14 0 10 33 44 37 39 3 -2 -5 -14 -16 -25z m176 23
c-3 -3 -12 -4 -19 -1 -8 3 -5 6 6 6 11 1 17 -2 13 -5z m-247 -26 c0 -6 -6 -5
-15 2 -8 7 -15 14 -15 16 0 2 7 1 15 -2 8 -4 15 -11 15 -16z m415 2 c8 6 12 5
12 -3 0 -7 -12 -13 -29 -12 -28 0 -34 5 -21 19 4 3 11 2 17 -4 6 -6 14 -6 21
0z m-385 -35 c0 -5 -5 -3 -10 5 -5 8 -10 20 -10 25 0 6 5 3 10 -5 5 -8 10 -19
10 -25z m46 -9 c2 -22 1 -23 -15 -7 -15 14 -15 17 -1 23 8 4 15 7 15 7 0 1 1
-10 1 -23z m31 -6 c1 -17 -1 -30 -5 -30 -6 0 -9 47 -3 58 4 7 6 -1 8 -28z
m232 -16 c-6 -8 -8 -14 -4 -14 4 0 2 -7 -5 -15 -7 -8 -18 -15 -24 -15 -6 0 -4
5 4 10 13 8 13 10 0 10 -10 0 -7 5 8 16 12 8 19 20 16 26 -4 7 -2 8 5 4 9 -6
9 -11 0 -22z m66 16 c3 -5 1 -10 -4 -10 -6 0 -11 5 -11 10 0 6 2 10 4 10 3 0
8 -4 11 -10z m-345 -10 c0 -5 -2 -10 -4 -10 -3 0 -8 5 -11 10 -3 6 -1 10 4 10
6 0 11 -4 11 -10z m330 -24 c0 -3 -4 -8 -10 -11 -5 -3 -10 -1 -10 4 0 6 5 11
10 11 6 0 10 -2 10 -4z m-270 -25 c0 -5 -7 -12 -16 -15 -14 -5 -15 -4 -4 9 14
17 20 19 20 6z m40 -1 c0 -5 -4 -10 -10 -10 -5 0 -10 5 -10 10 0 6 5 10 10 10
6 0 10 -4 10 -10z m37 -5 c0 -8 -4 -12 -9 -9 -4 3 -8 9 -8 15 0 5 4 9 8 9 5 0
9 -7 9 -15z m306 2 c7 3 3 -3 -7 -15 -22 -25 -36 -28 -36 -9 0 18 24 41 28 27
2 -5 9 -7 15 -3z m-247 -102 c-11 -8 -22 -12 -25 -9 -6 6 19 24 34 24 6 -1 1
-7 -9 -15z m14 -25 c0 -5 -5 -10 -11 -10 -5 0 -7 5 -4 10 3 6 8 10 11 10 2 0
4 -4 4 -10z m-23 -42 c-3 -8 -6 -5 -6 6 -1 11 2 17 5 13 3 -3 4 -12 1 -19z
m57 -11 c7 -6 6 -7 -4 -4 -8 2 -16 12 -17 23 -2 13 -1 15 4 4 3 -8 11 -19 17
-23z m-12 -75 c-7 -2 -12 -8 -12 -13 0 -6 4 -8 9 -5 5 3 11 -3 14 -14 3 -11 1
-18 -4 -14 -5 3 -9 1 -9 -4 0 -5 -7 -9 -15 -9 -8 0 -15 6 -15 13 0 8 6 11 16
7 14 -5 14 -2 -2 23 -11 15 -13 25 -6 21 7 -5 12 -3 12 3 0 6 5 8 12 4 9 -6 9
-9 0 -12z m-46 -89 c-11 -11 -17 4 -9 23 7 18 8 18 11 1 2 -10 1 -21 -2 -24z
m40 5 c4 -7 3 -8 -4 -4 -7 4 -12 0 -12 -10 0 -10 -3 -15 -6 -11 -7 6 2 37 10
37 3 0 8 -5 12 -12z m-36 -76 c-9 -14 -10 -12 -4 7 4 15 2 21 -4 17 -6 -4 -8
2 -4 16 l5 22 9 -23 c5 -14 4 -29 -2 -39z"/>
<path d="M775 2390 c3 -5 8 -10 11 -10 2 0 4 5 4 10 0 6 -5 10 -11 10 -5 0 -7
-4 -4 -10z"/>
<path d="M1885 2331 c-3 -5 -1 -12 4 -15 5 -3 11 1 15 9 6 16 -9 21 -19 6z"/>
<path d="M1480 1989 c0 -5 5 -7 10 -4 6 3 10 8 10 11 0 2 -4 4 -10 4 -5 0 -10
-5 -10 -11z"/>
<path d="M515 3327 c-16 -12 -31 -21 -32 -19 -8 6 -23 1 -23 -9 0 -8 6 -7 16
2 14 11 13 6 -4 -26 -39 -77 -58 -265 -27 -265 11 0 15 11 15 38 0 105 45 260
73 249 9 -3 13 4 13 24 0 16 0 29 0 29 -1 0 -14 -11 -31 -23z"/>
<path d="M930 3219 c0 -5 5 -7 10 -4 6 3 10 8 10 11 0 2 -4 4 -10 4 -5 0 -10
-5 -10 -11z"/>
<path d="M2016 3061 c-11 -18 14 -199 35 -257 26 -69 83 -134 140 -159 39 -18
42 -18 54 -2 6 9 15 14 19 10 4 -4 4 0 1 8 -8 20 28 32 45 15 14 -14 10 12 -5
31 -8 9 -13 8 -22 -5 -8 -9 -13 -11 -13 -4 0 7 -5 12 -11 12 -5 0 -8 -4 -4 -9
3 -5 1 -12 -5 -16 -6 -4 -7 -11 -4 -17 4 -7 -2 -8 -17 -3 -109 34 -165 132
-178 314 -6 78 -19 109 -35 82z"/>
<path d="M594 2888 c3 -7 9 -21 12 -30 4 -10 11 -18 16 -18 5 0 6 5 3 10 -10
17 7 11 20 -7 7 -9 14 -12 17 -7 3 5 -12 22 -34 37 -22 16 -37 22 -34 15z"/>
<path d="M2165 2873 c3 -8 0 -13 -8 -13 -23 0 -42 -29 -29 -42 9 -9 12 -6 13
13 l1 24 8 -25 c7 -21 15 -12 11 12 0 4 6 5 13 2 27 -10 -12 -43 -45 -37 -16
2 -29 0 -29 -6 0 -6 8 -7 18 -4 15 6 15 5 3 -10 -9 -12 -10 -17 -2 -17 7 0 9
-4 6 -10 -3 -5 -2 -10 3 -10 5 0 13 -9 18 -21 10 -21 10 -21 34 5 25 25 70 36
70 16 0 -6 -11 -8 -25 -6 -14 3 -25 0 -25 -6 0 -5 7 -8 15 -5 8 4 17 2 20 -3
3 -4 -6 -7 -19 -6 -17 2 -23 -1 -19 -10 3 -8 1 -14 -5 -14 -6 0 -13 6 -15 13
-4 9 -6 9 -6 0 -1 -19 18 -26 35 -12 12 9 17 10 27 0 9 -10 8 -11 -5 -6 -11 4
-18 2 -18 -5 0 -6 8 -10 18 -8 9 2 17 10 17 18 0 8 8 14 17 14 9 -1 15 5 14
12 -4 23 -50 73 -68 74 -9 0 -20 4 -23 10 -3 5 0 8 7 7 7 -2 10 -2 5 0 -4 3
-5 8 -3 12 3 3 -5 18 -16 31 -11 14 -17 19 -13 13z m9 -100 c-2 -39 -2 -38
-24 -18 -18 17 -19 41 0 30 5 -3 11 -1 15 5 9 15 11 12 9 -17z"/>
<path d="M755 2860 c3 -5 8 -10 11 -10 2 0 4 5 4 10 0 6 -5 10 -11 10 -5 0 -7
-4 -4 -10z"/>
<path d="M2024 2798 c-13 -20 -12 -48 2 -48 6 0 14 7 18 15 3 8 1 15 -4 15 -5
0 -7 7 -4 15 7 18 -2 20 -12 3z"/>
<path d="M1055 2649 c-4 -6 -4 -13 0 -17 3 -3 9 -1 13 5 5 8 13 7 27 -4 17
-14 18 -15 2 -9 -11 3 -25 0 -33 -9 -17 -16 -16 -17 39 -20 21 -1 40 2 43 7 3
5 -2 8 -12 6 -13 -2 -18 2 -16 13 1 9 -9 21 -23 27 -32 15 -32 15 -40 1z m42
-45 c-3 -3 -12 -4 -19 -1 -8 3 -5 6 6 6 11 1 17 -2 13 -5z"/>
<path d="M1829 2495 c-1 -3 -2 -8 -3 -12 -1 -5 -5 -14 -10 -22 -6 -9 -5 -12 1
-8 6 4 16 0 23 -8 7 -8 16 -12 22 -9 5 3 15 1 22 -5 8 -7 20 -10 27 -9 7 2 13
-3 14 -11 0 -21 22 -24 29 -4 7 18 -31 56 -46 47 -5 -3 -11 2 -14 10 -3 9 -10
14 -14 11 -4 -3 -13 2 -20 10 -12 15 -29 20 -31 10z m61 -44 c3 -2 -3 -1 -12
2 -9 3 -18 2 -20 -3 -2 -4 -9 -2 -16 6 -8 9 -9 14 -2 14 6 0 8 6 4 13 -6 10 6
1 46 -32z m44 -20 c14 -15 15 -21 4 -27 -7 -4 -10 -3 -5 1 4 5 0 17 -10 27 -9
10 -14 18 -11 18 3 0 13 -9 22 -19z"/>
<path d="M580 2485 c0 -7 30 -13 34 -7 3 4 -4 9 -15 9 -10 1 -19 0 -19 -2z"/>
<path d="M1490 2402 c0 -5 7 -9 15 -9 8 0 12 4 9 9 -3 4 -9 8 -15 8 -5 0 -9
-4 -9 -8z"/>
<path d="M1205 2050 c-3 -5 -1 -10 4 -10 6 0 11 5 11 10 0 6 -2 10 -4 10 -3 0
-8 -4 -11 -10z"/>
<path d="M1070 2020 c0 -5 5 -10 10 -10 6 0 10 5 10 10 0 6 -4 10 -10 10 -5 0
-10 -4 -10 -10z"/>
<path d="M1335 1759 c-4 -6 -2 -16 5 -22 10 -9 11 -9 6 0 -3 6 -1 13 6 15 9 3
9 6 1 11 -7 4 -15 2 -18 -4z"/>
</g>
</svg>
